<svg id="Layer_1" data-name="Layer 1" xmlns="http://www.w3.org/2000/svg" viewBox="0 0 566.93 665.36"><defs><style>.cls-1{fill:#afc7d1;}.cls-2{fill:#fff;}.cls-3{fill:#2c3b85;}.cls-4{fill:#5a80b9;}.cls-5{fill:#242642;}</style></defs><path class="cls-1" d="M123.38,201.41a2.92,2.92,0,1,0-2.92-2.92,2.92,2.92,0,0,0,2.92,2.92" transform="translate(-13.04 -88.15)"/><path class="cls-1" d="M142.86,201.41a2.92,2.92,0,1,0-2.92-2.92,2.92,2.92,0,0,0,2.92,2.92" transform="translate(-13.04 -88.15)"/><path class="cls-1" d="M162.34,201.41a2.92,2.92,0,1,0-2.92-2.92,2.92,2.92,0,0,0,2.92,2.92" transform="translate(-13.04 -88.15)"/><path class="cls-1" d="M181.82,201.41a2.92,2.92,0,1,0-2.93-2.92,2.92,2.92,0,0,0,2.93,2.92" transform="translate(-13.04 -88.15)"/><path class="cls-1" d="M113.64,205.3a2.93,2.93,0,1,1-2.92,2.93,2.92,2.92,0,0,1,2.92-2.93m0,7.8a4.87,4.87,0,1,0-4.87-4.87,4.87,4.87,0,0,0,4.87,4.87" transform="translate(-13.04 -88.15)"/><path class="cls-1" d="M133.12,205.3a2.93,2.93,0,1,1-2.92,2.93,2.93,2.93,0,0,1,2.92-2.93m0,7.8a4.87,4.87,0,1,0-4.87-4.87,4.87,4.87,0,0,0,4.87,4.87" transform="translate(-13.04 -88.15)"/><path class="cls-1" d="M152.6,205.3a2.93,2.93,0,1,1-2.92,2.93,2.93,2.93,0,0,1,2.92-2.93m0,7.8a4.87,4.87,0,1,0-4.87-4.87,4.87,4.87,0,0,0,4.87,4.87" transform="translate(-13.04 -88.15)"/><path class="cls-1" d="M172.08,205.3a2.93,2.93,0,1,1-2.92,2.93,2.93,2.93,0,0,1,2.92-2.93m0,7.8a4.87,4.87,0,1,0-4.87-4.87,4.87,4.87,0,0,0,4.87,4.87" transform="translate(-13.04 -88.15)"/><path class="cls-1" d="M191.55,211.15a2.93,2.93,0,1,1,2.93-2.92,2.92,2.92,0,0,1-2.93,2.92m0-7.79a4.87,4.87,0,1,0,4.87,4.87,4.87,4.87,0,0,0-4.87-4.87" transform="translate(-13.04 -88.15)"/><path class="cls-1" d="M123.38,215a2.93,2.93,0,1,1-2.92,2.92,2.92,2.92,0,0,1,2.92-2.92m0,7.79a4.87,4.87,0,1,0-4.87-4.87,4.87,4.87,0,0,0,4.87,4.87" transform="translate(-13.04 -88.15)"/><path class="cls-1" d="M142.86,215a2.93,2.93,0,1,1-2.92,2.92,2.92,2.92,0,0,1,2.92-2.92m0,7.79A4.87,4.87,0,1,0,138,218a4.87,4.87,0,0,0,4.87,4.87" transform="translate(-13.04 -88.15)"/><path class="cls-1" d="M162.34,215a2.93,2.93,0,1,1-2.92,2.92,2.92,2.92,0,0,1,2.92-2.92m0,7.79a4.87,4.87,0,1,0-4.87-4.87,4.87,4.87,0,0,0,4.87,4.87" transform="translate(-13.04 -88.15)"/><path class="cls-1" d="M181.82,220.89a2.93,2.93,0,1,1,2.92-2.92,2.93,2.93,0,0,1-2.92,2.92m0-7.79a4.87,4.87,0,1,0,4.87,4.87,4.87,4.87,0,0,0-4.87-4.87" transform="translate(-13.04 -88.15)"/><path class="cls-1" d="M120.46,237.44a2.92,2.92,0,1,0,2.92-2.92,2.92,2.92,0,0,0-2.92,2.92" transform="translate(-13.04 -88.15)"/><path class="cls-1" d="M139.94,237.44a2.92,2.92,0,1,0,2.92-2.92,2.92,2.92,0,0,0-2.92,2.92" transform="translate(-13.04 -88.15)"/><path class="cls-1" d="M159.42,237.44a2.92,2.92,0,1,0,2.92-2.92,2.91,2.91,0,0,0-2.92,2.92" transform="translate(-13.04 -88.15)"/><path class="cls-1" d="M184.74,237.44a2.93,2.93,0,1,0-2.92,2.92,2.92,2.92,0,0,0,2.92-2.92" transform="translate(-13.04 -88.15)"/><path class="cls-1" d="M113.64,244.26a2.92,2.92,0,1,1-2.92,2.92,2.92,2.92,0,0,1,2.92-2.92m0,7.79a4.87,4.87,0,1,0-4.87-4.87,4.87,4.87,0,0,0,4.87,4.87" transform="translate(-13.04 -88.15)"/><path class="cls-1" d="M133.12,250.1a2.92,2.92,0,1,1,2.92-2.92,2.92,2.92,0,0,1-2.92,2.92m0-7.79a4.87,4.87,0,1,0,4.87,4.87,4.87,4.87,0,0,0-4.87-4.87" transform="translate(-13.04 -88.15)"/><path class="cls-1" d="M152.6,250.1a2.92,2.92,0,1,1,2.92-2.92,2.92,2.92,0,0,1-2.92,2.92m0-7.79a4.87,4.87,0,1,0,4.87,4.87,4.87,4.87,0,0,0-4.87-4.87" transform="translate(-13.04 -88.15)"/><path class="cls-1" d="M172.08,250.1a2.92,2.92,0,1,1,2.92-2.92,2.91,2.91,0,0,1-2.92,2.92m0-7.79a4.87,4.87,0,1,0,4.87,4.87,4.87,4.87,0,0,0-4.87-4.87" transform="translate(-13.04 -88.15)"/><path class="cls-1" d="M191.55,250.1a2.92,2.92,0,1,1,2.93-2.92,2.92,2.92,0,0,1-2.93,2.92m0-7.79a4.87,4.87,0,1,0,4.87,4.87,4.87,4.87,0,0,0-4.87-4.87" transform="translate(-13.04 -88.15)"/><path class="cls-1" d="M123.38,259.84a2.92,2.92,0,1,1,2.92-2.92,2.92,2.92,0,0,1-2.92,2.92m0-7.79a4.87,4.87,0,1,0,4.87,4.87,4.87,4.87,0,0,0-4.87-4.87" transform="translate(-13.04 -88.15)"/><path class="cls-1" d="M142.86,259.84a2.92,2.92,0,1,1,2.92-2.92,2.92,2.92,0,0,1-2.92,2.92m0-7.79a4.87,4.87,0,1,0,4.87,4.87,4.87,4.87,0,0,0-4.87-4.87" transform="translate(-13.04 -88.15)"/><path class="cls-1" d="M162.34,259.84a2.92,2.92,0,1,1,2.92-2.92,2.91,2.91,0,0,1-2.92,2.92m0-7.79a4.87,4.87,0,1,0,4.87,4.87,4.87,4.87,0,0,0-4.87-4.87" transform="translate(-13.04 -88.15)"/><path class="cls-1" d="M181.82,259.84a2.92,2.92,0,1,1,2.92-2.92,2.92,2.92,0,0,1-2.92,2.92m0-7.79a4.87,4.87,0,1,0,4.87,4.87,4.87,4.87,0,0,0-4.87-4.87" transform="translate(-13.04 -88.15)"/><path class="cls-1" d="M113.64,232.57a4.87,4.87,0,1,0-4.87-4.87,4.87,4.87,0,0,0,4.87,4.87" transform="translate(-13.04 -88.15)"/><path class="cls-1" d="M133.12,222.83A4.87,4.87,0,1,0,138,227.7a4.87,4.87,0,0,0-4.87-4.87" transform="translate(-13.04 -88.15)"/><path class="cls-1" d="M152.6,222.83a4.87,4.87,0,1,0,4.87,4.87,4.87,4.87,0,0,0-4.87-4.87" transform="translate(-13.04 -88.15)"/><path class="cls-1" d="M172.08,222.83A4.87,4.87,0,1,0,177,227.7a4.87,4.87,0,0,0-4.87-4.87" transform="translate(-13.04 -88.15)"/><path class="cls-1" d="M191.55,222.83a4.87,4.87,0,1,0,4.87,4.87,4.87,4.87,0,0,0-4.87-4.87" transform="translate(-13.04 -88.15)"/><path class="cls-1" d="M113.64,193.62a4.87,4.87,0,0,0,1.75-9.41,9.06,9.06,0,0,0-6.29,6.29,4.88,4.88,0,0,0,4.54,3.12" transform="translate(-13.04 -88.15)"/><path class="cls-1" d="M128.25,188.75a4.87,4.87,0,1,0,4.87-4.87,4.87,4.87,0,0,0-4.87,4.87" transform="translate(-13.04 -88.15)"/><path class="cls-1" d="M147.73,188.75a4.87,4.87,0,1,0,4.87-4.87,4.87,4.87,0,0,0-4.87,4.87" transform="translate(-13.04 -88.15)"/><path class="cls-1" d="M167.21,188.75a4.87,4.87,0,1,0,4.87-4.87,4.87,4.87,0,0,0-4.87,4.87" transform="translate(-13.04 -88.15)"/><path class="cls-1" d="M186.69,188.75a4.87,4.87,0,0,0,9.41,1.75,9.06,9.06,0,0,0-6.3-6.29,4.86,4.86,0,0,0-3.11,4.54" transform="translate(-13.04 -88.15)"/><path class="cls-1" d="M118.51,266.66a4.87,4.87,0,0,0-9.41-1.75,9.1,9.1,0,0,0,6.29,6.29,4.86,4.86,0,0,0,3.12-4.54" transform="translate(-13.04 -88.15)"/><path class="cls-1" d="M138,266.66a4.87,4.87,0,1,0-4.87,4.87,4.87,4.87,0,0,0,4.87-4.87" transform="translate(-13.04 -88.15)"/><path class="cls-1" d="M157.47,266.66a4.87,4.87,0,1,0-4.87,4.87,4.87,4.87,0,0,0,4.87-4.87" transform="translate(-13.04 -88.15)"/><path class="cls-1" d="M177,266.66a4.87,4.87,0,1,0-4.87,4.87,4.87,4.87,0,0,0,4.87-4.87" transform="translate(-13.04 -88.15)"/><path class="cls-1" d="M191.55,261.79a4.87,4.87,0,0,0-1.75,9.41,9.09,9.09,0,0,0,6.3-6.29,4.87,4.87,0,0,0-4.55-3.12" transform="translate(-13.04 -88.15)"/><path class="cls-1" d="M207.54,700.33V699a2,2,0,0,0-2-2.05h-.69v5.47h.69a2,2,0,0,0,2-2" transform="translate(-13.04 -88.15)"/><path class="cls-1" d="M217.36,665.56a2,2,0,0,0,2,2.05h0a2,2,0,0,0,2.05-2.05h-4.1Z" transform="translate(-13.04 -88.15)"/><path class="cls-1" d="M244.24,753.21H253a4.39,4.39,0,0,0-8.77,0" transform="translate(-13.04 -88.15)"/><path class="cls-1" d="M204.8,733.25a4.39,4.39,0,0,0,0-8.77Z" transform="translate(-13.04 -88.15)"/><path class="cls-1" d="M209.18,689.91a4.38,4.38,0,0,0-4.38-4.39v8.77a4.38,4.38,0,0,0,4.38-4.38" transform="translate(-13.04 -88.15)"/><path class="cls-1" d="M207.54,739.29v-1.37a2.05,2.05,0,0,0-2-2.06h-.69v5.48h.69a2.05,2.05,0,0,0,2-2.05" transform="translate(-13.04 -88.15)"/><path class="cls-1" d="M258.37,669.94a4.38,4.38,0,0,0,4.38-4.38H254a4.39,4.39,0,0,0,4.39,4.38" transform="translate(-13.04 -88.15)"/><path class="cls-2" d="M288.07,699.65a4.38,4.38,0,0,0,4.38,4.38v-8.77a4.38,4.38,0,0,0-4.38,4.39" transform="translate(-13.04 -88.15)"/><path class="cls-2" d="M290,737.58l1,1-1,1a1.09,1.09,0,0,0,0,1.55,1.1,1.1,0,0,0,1.56,0l.9-.9v-3.35l-.9-.91a1.1,1.1,0,1,0-1.56,1.56" transform="translate(-13.04 -88.15)"/><path class="cls-1" d="M265.52,750.63a1.09,1.09,0,0,0,0,1.55l1,1h3.11l1-1a1.1,1.1,0,0,0-1.56-1.55l-1,1-1-1a1.1,1.1,0,0,0-1.56,0" transform="translate(-13.04 -88.15)"/><rect class="cls-1" x="214.06" y="648.39" width="4.11" height="4.11" rx="2.05"/><path class="cls-1" d="M222.15,719.81v-1.37a2.05,2.05,0,0,0-2.05-2.06h-1.38a2.05,2.05,0,0,0-2.05,2.06v1.37a2.05,2.05,0,0,0,2.05,2.05h1.38a2.05,2.05,0,0,0,2.05-2.05" transform="translate(-13.04 -88.15)"/><path class="cls-1" d="M222.15,700.33V699a2,2,0,0,0-2.05-2.05h-1.38a2,2,0,0,0-2.05,2.05v1.37a2,2,0,0,0,2.05,2h1.38a2,2,0,0,0,2.05-2" transform="translate(-13.04 -88.15)"/><path class="cls-1" d="M212.49,743.47a2.05,2.05,0,1,0,2-2.05,2.06,2.06,0,0,0-2,2.05" transform="translate(-13.04 -88.15)"/><path class="cls-1" d="M232.8,701.24v-3.19a2.05,2.05,0,0,0-2.05-2.06h-3.2a2.05,2.05,0,0,0-2.05,2.06v3.19a2.05,2.05,0,0,0,2.05,2.06h3.2a2.05,2.05,0,0,0,2.05-2.06" transform="translate(-13.04 -88.15)"/><path class="cls-1" d="M221.46,689.91h0a2.05,2.05,0,0,0-2.05-2h0a2.05,2.05,0,0,0-2,2h0a2.05,2.05,0,0,0,2,2.05h0a2.05,2.05,0,0,0,2.05-2.05" transform="translate(-13.04 -88.15)"/><path class="cls-1" d="M227.55,693.56h3.2a2.05,2.05,0,0,0,2.05-2v-3.2a2.05,2.05,0,0,0-2.05-2.06h-3.2a2.05,2.05,0,0,0-2.05,2.06v3.2a2.05,2.05,0,0,0,2.05,2" transform="translate(-13.04 -88.15)"/><path class="cls-1" d="M226.41,679.48v1.37a2.05,2.05,0,0,0,2.05,2.06h1.38a2.05,2.05,0,0,0,2-2.06v-1.37a2.05,2.05,0,0,0-2-2.05h-1.38a2.05,2.05,0,0,0-2.05,2.05" transform="translate(-13.04 -88.15)"/><path class="cls-1" d="M249.31,735.86h-1.37a2.05,2.05,0,0,0-2.05,2.06v1.37a2.05,2.05,0,0,0,2.05,2.05h1.37a2.05,2.05,0,0,0,2.06-2.05v-1.37a2.06,2.06,0,0,0-2.06-2.06" transform="translate(-13.04 -88.15)"/><path class="cls-1" d="M245,727.26v3.2a2.06,2.06,0,0,0,2.06,2.06h22.68a2.05,2.05,0,0,0,2.05-2.06v-3.2a2.05,2.05,0,0,0-2.05-2H247a2.05,2.05,0,0,0-2.06,2" transform="translate(-13.04 -88.15)"/><path class="cls-1" d="M234.94,709.38h0a3.95,3.95,0,1,0,3.95-3.94,4,4,0,0,0-3.95,3.94" transform="translate(-13.04 -88.15)"/><path class="cls-1" d="M242.83,699.65h0a3.95,3.95,0,1,0-3.94,3.94,3.94,3.94,0,0,0,3.94-3.94" transform="translate(-13.04 -88.15)"/><path class="cls-1" d="M262.31,719.12a3.95,3.95,0,1,0-3.94,4,3.95,3.95,0,0,0,3.94-4" transform="translate(-13.04 -88.15)"/><path class="cls-1" d="M235.24,673.7v17.81a2,2,0,0,0,2,2H260a2.05,2.05,0,0,0,2-2v-3.2a2.05,2.05,0,0,0-2-2.06H244.59a2.05,2.05,0,0,1-2.05-2V673.7a2,2,0,0,0-2-2.05h-3.2a2,2,0,0,0-2,2.05" transform="translate(-13.04 -88.15)"/><path class="cls-1" d="M264.82,707.94v2.88a1.85,1.85,0,0,0,1.85,1.85h2.87a1.85,1.85,0,0,0,1.85-1.85v-2.88a1.84,1.84,0,0,0-1.85-1.84h-2.87a1.84,1.84,0,0,0-1.85,1.84" transform="translate(-13.04 -88.15)"/><path class="cls-1" d="M278.33,719.12a4.39,4.39,0,1,0,4.38-4.38,4.39,4.39,0,0,0-4.38,4.38" transform="translate(-13.04 -88.15)"/><path class="cls-1" d="M264.82,698.2v2.88a1.85,1.85,0,0,0,1.85,1.85h2.87a1.85,1.85,0,0,0,1.85-1.85V698.2a1.85,1.85,0,0,0-1.85-1.84h-2.87a1.85,1.85,0,0,0-1.85,1.84" transform="translate(-13.04 -88.15)"/><path class="cls-1" d="M255.63,679.48v1.37a2,2,0,0,0,2.05,2.06h1.37a2,2,0,0,0,2.05-2.06v-1.37a2,2,0,0,0-2.05-2.05h-1.37a2,2,0,0,0-2.05,2.05" transform="translate(-13.04 -88.15)"/><path class="cls-1" d="M266.05,680.17h0a2.05,2.05,0,0,0,2.05,2.05h0a2.05,2.05,0,0,0,2.05-2.05h0a2.05,2.05,0,0,0-2.05-2.06h0a2.05,2.05,0,0,0-2.05,2.06" transform="translate(-13.04 -88.15)"/><rect class="cls-1" x="262.75" y="648.39" width="4.11" height="4.11" rx="2.05"/><path class="cls-1" d="M275.11,689.22v1.37a2,2,0,0,0,2.05,2.06h1.37a2.05,2.05,0,0,0,2.05-2.06v-1.37a2.05,2.05,0,0,0-2.05-2.05h-1.37a2,2,0,0,0-2.05,2.05" transform="translate(-13.04 -88.15)"/><path class="cls-1" d="M265.52,687.32a1.1,1.1,0,0,0,0,1.56l1,1-1,1a1.1,1.1,0,1,0,1.56,1.56l1-1,1,1a1.1,1.1,0,0,0,1.56,0,1.12,1.12,0,0,0,0-1.56l-1-1,1-1a1.1,1.1,0,0,0-1.56-1.56l-1,1-1-1a1.12,1.12,0,0,0-1.56,0" transform="translate(-13.04 -88.15)"/><path class="cls-1" d="M265.52,716.54a1.1,1.1,0,0,0,0,1.56l1,1-1,1a1.1,1.1,0,0,0,0,1.56,1.12,1.12,0,0,0,1.56,0l1-1,1,1a1.1,1.1,0,1,0,1.56-1.56l-1-1,1-1a1.12,1.12,0,0,0,0-1.56,1.1,1.1,0,0,0-1.56,0l-1,1-1-1a1.1,1.1,0,0,0-1.56,0" transform="translate(-13.04 -88.15)"/><path class="cls-1" d="M212.25,682.75a1.1,1.1,0,0,0,0-1.56l-1-1,1-1a1.1,1.1,0,0,0-1.55-1.56l-1,1-1-1a1.12,1.12,0,0,0-1.56,0,1.1,1.1,0,0,0,0,1.56l1,1-1,1a1.1,1.1,0,0,0,1.56,1.56l1-1,1,1a1.09,1.09,0,0,0,1.55,0" transform="translate(-13.04 -88.15)"/><path class="cls-1" d="M241.47,721.71a1.1,1.1,0,0,0,0-1.56l-1-1,1-1a1.1,1.1,0,1,0-1.56-1.56l-1,1-1-1a1.09,1.09,0,0,0-1.55,0,1.1,1.1,0,0,0,0,1.56l1,1-1,1a1.1,1.1,0,1,0,1.55,1.56l1-1,1,1a1.12,1.12,0,0,0,1.56,0" transform="translate(-13.04 -88.15)"/><path class="cls-1" d="M222,731.44a1.09,1.09,0,0,0,0-1.55l-1-1,1-1a1.1,1.1,0,0,0,0-1.56,1.09,1.09,0,0,0-1.55,0l-1,1-1-1a1.09,1.09,0,0,0-1.55,0,1.1,1.1,0,0,0,0,1.56l1,1-1,1a1.1,1.1,0,0,0,1.55,1.55l1-1,1,1a1.09,1.09,0,0,0,1.55,0" transform="translate(-13.04 -88.15)"/><path class="cls-3" d="M468.84,560.83H316.12a15.92,15.92,0,0,1-15.92-15.92V392.19a15.93,15.93,0,0,1,15.92-15.93H468.84a15.93,15.93,0,0,1,15.93,15.93V544.91a15.93,15.93,0,0,1-15.93,15.92" transform="translate(-13.04 -88.15)"/><path class="cls-4" d="M276.65,561.25H220.4a15.65,15.65,0,0,1-15.65-15.65V489.35a15.65,15.65,0,0,1,15.65-15.64h56.25a15.64,15.64,0,0,1,15.64,15.64V545.6a15.65,15.65,0,0,1-15.64,15.65" transform="translate(-13.04 -88.15)"/><path class="cls-1" d="M564.26,561.25H508a15.65,15.65,0,0,1-15.64-15.65V489.35A15.64,15.64,0,0,1,508,473.71h56.25a15.65,15.65,0,0,1,15.65,15.64V545.6a15.65,15.65,0,0,1-15.65,15.65" transform="translate(-13.04 -88.15)"/><path class="cls-3" d="M508.91,608.68a2.92,2.92,0,1,0,2.92-2.91,2.92,2.92,0,0,0-2.92,2.91" transform="translate(-13.04 -88.15)"/><path class="cls-3" d="M518.63,618.41a2.92,2.92,0,1,0,2.92-2.92,2.91,2.91,0,0,0-2.92,2.92" transform="translate(-13.04 -88.15)"/><path class="cls-3" d="M531.28,605.77a2.92,2.92,0,1,0,2.91,2.91,2.91,2.91,0,0,0-2.91-2.91" transform="translate(-13.04 -88.15)"/><path class="cls-3" d="M531.28,596a2.92,2.92,0,1,0,2.91,2.92,2.92,2.92,0,0,0-2.91-2.92" transform="translate(-13.04 -88.15)"/><path class="cls-3" d="M541,650.5a2.92,2.92,0,1,0-2.91-2.91A2.91,2.91,0,0,0,541,650.5" transform="translate(-13.04 -88.15)"/><path class="cls-3" d="M557.54,657.31h5.83a2.92,2.92,0,0,0-5.83,0" transform="translate(-13.04 -88.15)"/><path class="cls-3" d="M541,586.32a2.92,2.92,0,1,0,2.92,2.91,2.9,2.9,0,0,0-2.92-2.91" transform="translate(-13.04 -88.15)"/><path class="cls-3" d="M550.73,572.7a2.92,2.92,0,0,0,2.92-2.92h-5.84a2.92,2.92,0,0,0,2.92,2.92" transform="translate(-13.04 -88.15)"/><path class="cls-3" d="M541,576.59a2.92,2.92,0,1,0,2.92,2.92,2.91,2.91,0,0,0-2.92-2.92" transform="translate(-13.04 -88.15)"/><path class="cls-3" d="M492.37,618.89a38.47,38.47,0,0,1,38.43,38.42h1a39.43,39.43,0,0,0-39.39-39.38Z" transform="translate(-13.04 -88.15)"/><path class="cls-3" d="M492.37,623.75a33.6,33.6,0,0,1,33.53,33.56h1a34.58,34.58,0,0,0-34.49-34.52Z" transform="translate(-13.04 -88.15)"/><path class="cls-3" d="M492.37,628.62A28.72,28.72,0,0,1,521,657.31h1a29.68,29.68,0,0,0-29.62-29.65Z" transform="translate(-13.04 -88.15)"/><path class="cls-3" d="M492.37,633.48a23.86,23.86,0,0,1,23.8,23.83h1a24.8,24.8,0,0,0-24.75-24.78Z" transform="translate(-13.04 -88.15)"/><path class="cls-3" d="M492.37,638.34a19,19,0,0,1,19,19h1a19.94,19.94,0,0,0-19.92-19.91Z" transform="translate(-13.04 -88.15)"/><path class="cls-3" d="M492.37,643.22a14.09,14.09,0,0,1,14.08,14.08v0h1a15.06,15.06,0,0,0-15-15Z" transform="translate(-13.04 -88.15)"/><path class="cls-3" d="M492.37,648.08a9.23,9.23,0,0,1,9.22,9.22h1a10.19,10.19,0,0,0-10.18-10.17Z" transform="translate(-13.04 -88.15)"/><path class="cls-3" d="M579.12,652a38.43,38.43,0,0,1,0-76.84,8.31,8.31,0,0,0-.48-.94,39.38,39.38,0,0,0,0,78.72,9.35,9.35,0,0,0,.49-.94" transform="translate(-13.04 -88.15)"/><path class="cls-3" d="M579.91,579h0a34.52,34.52,0,1,0,0,69h0v-1h0a33.56,33.56,0,0,1,0-67.12h0Z" transform="translate(-13.04 -88.15)"/><path class="cls-3" d="M579.91,583.9h0a29.65,29.65,0,1,0,0,59.3h0v-1h0a28.7,28.7,0,0,1,0-57.4h0Z" transform="translate(-13.04 -88.15)"/><path class="cls-3" d="M579.91,588.76h0a24.79,24.79,0,1,0,0,49.57h0v-1h0a23.83,23.83,0,1,1,0-47.66h0Z" transform="translate(-13.04 -88.15)"/><path class="cls-3" d="M579.91,593.62h0a19.92,19.92,0,1,0,0,39.83v-1a19,19,0,1,1,0-37.92Z" transform="translate(-13.04 -88.15)"/><path class="cls-3" d="M579.91,598.5h0a15,15,0,1,0,0,30.08v-1a14.08,14.08,0,1,1,0-28.16Z" transform="translate(-13.04 -88.15)"/><path class="cls-3" d="M579.91,604.32h0v-1a10.18,10.18,0,1,0,0,20.36v-1a9.22,9.22,0,1,1,0-18.44" transform="translate(-13.04 -88.15)"/><path class="cls-3" d="M492.37,609.16h0a39.44,39.44,0,0,0,39.38-39.39h-.95a38.47,38.47,0,0,1-38.43,38.43h0Z" transform="translate(-13.04 -88.15)"/><path class="cls-3" d="M492.37,604.3a34.55,34.55,0,0,0,34.52-34.52h-1a33.6,33.6,0,0,1-33.56,33.57Z" transform="translate(-13.04 -88.15)"/><path class="cls-3" d="M492.37,599.44A29.71,29.71,0,0,0,522,569.78h-1a28.73,28.73,0,0,1-28.7,28.7Z" transform="translate(-13.04 -88.15)"/><path class="cls-3" d="M492.37,594.56a24.81,24.81,0,0,0,24.79-24.78h-1a23.85,23.85,0,0,1-23.83,23.83Z" transform="translate(-13.04 -88.15)"/><path class="cls-3" d="M492.37,589.69h0a19.93,19.93,0,0,0,19.91-19.91h-1a19,19,0,0,1-19,19h0Z" transform="translate(-13.04 -88.15)"/><path class="cls-3" d="M492.37,584.81h0a15.06,15.06,0,0,0,15-15h-1a14.09,14.09,0,0,1-14.08,14.07h0Z" transform="translate(-13.04 -88.15)"/><path class="cls-3" d="M492.37,580h0a10.18,10.18,0,0,0,10.17-10.17h-.95a9.23,9.23,0,0,1-9.22,9.21h0Z" transform="translate(-13.04 -88.15)"/><path class="cls-1" d="M562.43,680.47a2.93,2.93,0,1,0,2.93-2.92,2.93,2.93,0,0,0-2.93,2.92" transform="translate(-13.04 -88.15)"/><path class="cls-1" d="M562.43,700a2.93,2.93,0,1,0,2.93-2.93,2.93,2.93,0,0,0-2.93,2.93" transform="translate(-13.04 -88.15)"/><path class="cls-1" d="M562.43,719.42a2.93,2.93,0,1,0,2.93-2.92,2.93,2.93,0,0,0-2.93,2.92" transform="translate(-13.04 -88.15)"/><path class="cls-1" d="M562.43,738.9a2.93,2.93,0,1,0,2.93-2.92,2.92,2.92,0,0,0-2.93,2.92" transform="translate(-13.04 -88.15)"/><path class="cls-1" d="M558.54,670.73a2.92,2.92,0,1,1-2.92-2.92,2.92,2.92,0,0,1,2.92,2.92m-7.79,0a4.87,4.87,0,1,0,4.87-4.87,4.87,4.87,0,0,0-4.87,4.87" transform="translate(-13.04 -88.15)"/><path class="cls-1" d="M558.54,690.21a2.92,2.92,0,1,1-2.92-2.92,2.92,2.92,0,0,1,2.92,2.92m-7.79,0a4.87,4.87,0,1,0,4.87-4.87,4.87,4.87,0,0,0-4.87,4.87" transform="translate(-13.04 -88.15)"/><path class="cls-1" d="M558.54,709.68a2.92,2.92,0,1,1-2.92-2.92,2.93,2.93,0,0,1,2.92,2.92m-7.79,0a4.87,4.87,0,1,0,4.87-4.87,4.88,4.88,0,0,0-4.87,4.87" transform="translate(-13.04 -88.15)"/><path class="cls-1" d="M558.54,729.16a2.92,2.92,0,1,1-2.92-2.92,2.92,2.92,0,0,1,2.92,2.92m-7.79,0a4.87,4.87,0,1,0,4.87-4.87,4.87,4.87,0,0,0-4.87,4.87" transform="translate(-13.04 -88.15)"/><path class="cls-1" d="M552.69,748.64a2.93,2.93,0,1,1,2.93,2.92,2.93,2.93,0,0,1-2.93-2.92m7.8,0a4.87,4.87,0,1,0-4.87,4.87,4.87,4.87,0,0,0,4.87-4.87" transform="translate(-13.04 -88.15)"/><path class="cls-1" d="M548.8,680.47a2.92,2.92,0,1,1-2.92-2.92,2.92,2.92,0,0,1,2.92,2.92m-7.79,0a4.87,4.87,0,1,0,4.87-4.87,4.87,4.87,0,0,0-4.87,4.87" transform="translate(-13.04 -88.15)"/><path class="cls-1" d="M548.8,700a2.92,2.92,0,1,1-2.92-2.93A2.92,2.92,0,0,1,548.8,700M541,700a4.87,4.87,0,1,0,4.87-4.87A4.87,4.87,0,0,0,541,700" transform="translate(-13.04 -88.15)"/><path class="cls-1" d="M548.8,719.42a2.92,2.92,0,1,1-2.92-2.92,2.93,2.93,0,0,1,2.92,2.92m-7.79,0a4.87,4.87,0,1,0,4.87-4.86,4.87,4.87,0,0,0-4.87,4.86" transform="translate(-13.04 -88.15)"/><path class="cls-1" d="M543,738.9a2.92,2.92,0,1,1,2.92,2.92A2.92,2.92,0,0,1,543,738.9m7.79,0a4.87,4.87,0,1,0-4.87,4.87,4.87,4.87,0,0,0,4.87-4.87" transform="translate(-13.04 -88.15)"/><path class="cls-1" d="M526.4,677.55a2.92,2.92,0,1,0,2.92,2.92,2.92,2.92,0,0,0-2.92-2.92" transform="translate(-13.04 -88.15)"/><path class="cls-1" d="M526.4,697a2.93,2.93,0,1,0,2.92,2.93A2.93,2.93,0,0,0,526.4,697" transform="translate(-13.04 -88.15)"/><path class="cls-1" d="M526.4,716.5a2.93,2.93,0,1,0,2.92,2.92,2.92,2.92,0,0,0-2.92-2.92" transform="translate(-13.04 -88.15)"/><path class="cls-1" d="M526.4,741.82a2.92,2.92,0,1,0-2.92-2.92,2.92,2.92,0,0,0,2.92,2.92" transform="translate(-13.04 -88.15)"/><path class="cls-1" d="M519.58,670.73a2.92,2.92,0,1,1-2.92-2.92,2.92,2.92,0,0,1,2.92,2.92m-7.79,0a4.87,4.87,0,1,0,4.87-4.87,4.87,4.87,0,0,0-4.87,4.87" transform="translate(-13.04 -88.15)"/><path class="cls-1" d="M513.74,690.21a2.92,2.92,0,1,1,2.92,2.92,2.92,2.92,0,0,1-2.92-2.92m7.79,0a4.87,4.87,0,1,0-4.87,4.87,4.87,4.87,0,0,0,4.87-4.87" transform="translate(-13.04 -88.15)"/><path class="cls-1" d="M513.74,709.68a2.92,2.92,0,1,1,2.92,2.93,2.92,2.92,0,0,1-2.92-2.93m7.79,0a4.87,4.87,0,1,0-4.87,4.88,4.87,4.87,0,0,0,4.87-4.88" transform="translate(-13.04 -88.15)"/><path class="cls-1" d="M513.74,729.16a2.92,2.92,0,1,1,2.92,2.92,2.92,2.92,0,0,1-2.92-2.92m7.79,0a4.87,4.87,0,1,0-4.87,4.87,4.87,4.87,0,0,0,4.87-4.87" transform="translate(-13.04 -88.15)"/><path class="cls-1" d="M513.74,748.64a2.92,2.92,0,1,1,2.92,2.92,2.92,2.92,0,0,1-2.92-2.92m7.79,0a4.87,4.87,0,1,0-4.87,4.87,4.87,4.87,0,0,0,4.87-4.87" transform="translate(-13.04 -88.15)"/><path class="cls-1" d="M504,680.47a2.92,2.92,0,1,1,2.92,2.92,2.92,2.92,0,0,1-2.92-2.92m7.79,0a4.87,4.87,0,1,0-4.87,4.87,4.87,4.87,0,0,0,4.87-4.87" transform="translate(-13.04 -88.15)"/><path class="cls-1" d="M504,700a2.92,2.92,0,1,1,2.92,2.92A2.93,2.93,0,0,1,504,700m7.79,0a4.87,4.87,0,1,0-4.87,4.86,4.87,4.87,0,0,0,4.87-4.86" transform="translate(-13.04 -88.15)"/><path class="cls-1" d="M504,719.42a2.92,2.92,0,1,1,2.92,2.93,2.92,2.92,0,0,1-2.92-2.93m7.79,0a4.87,4.87,0,1,0-4.87,4.87,4.87,4.87,0,0,0,4.87-4.87" transform="translate(-13.04 -88.15)"/><path class="cls-1" d="M504,738.9a2.92,2.92,0,1,1,2.92,2.92A2.92,2.92,0,0,1,504,738.9m7.79,0a4.87,4.87,0,1,0-4.87,4.87,4.87,4.87,0,0,0,4.87-4.87" transform="translate(-13.04 -88.15)"/><path class="cls-1" d="M531.27,670.73a4.87,4.87,0,1,0,4.87-4.87,4.87,4.87,0,0,0-4.87,4.87" transform="translate(-13.04 -88.15)"/><path class="cls-1" d="M541,690.21a4.87,4.87,0,1,0-4.87,4.87,4.87,4.87,0,0,0,4.87-4.87" transform="translate(-13.04 -88.15)"/><path class="cls-1" d="M541,709.68a4.87,4.87,0,1,0-4.87,4.88,4.87,4.87,0,0,0,4.87-4.88" transform="translate(-13.04 -88.15)"/><path class="cls-1" d="M541,729.16a4.87,4.87,0,1,0-4.87,4.87,4.87,4.87,0,0,0,4.87-4.87" transform="translate(-13.04 -88.15)"/><path class="cls-1" d="M541,748.64a4.87,4.87,0,1,0-4.87,4.87,4.87,4.87,0,0,0,4.87-4.87" transform="translate(-13.04 -88.15)"/><path class="cls-1" d="M570.23,670.73a4.86,4.86,0,0,0,9.4,1.75,9,9,0,0,0-6.29-6.29,4.86,4.86,0,0,0-3.11,4.54" transform="translate(-13.04 -88.15)"/><path class="cls-1" d="M575.1,685.34a4.87,4.87,0,1,0,4.87,4.87,4.87,4.87,0,0,0-4.87-4.87" transform="translate(-13.04 -88.15)"/><path class="cls-1" d="M575.1,704.82a4.87,4.87,0,1,0,4.87,4.87,4.86,4.86,0,0,0-4.87-4.87" transform="translate(-13.04 -88.15)"/><path class="cls-1" d="M575.1,724.29a4.87,4.87,0,1,0,4.87,4.87,4.87,4.87,0,0,0-4.87-4.87" transform="translate(-13.04 -88.15)"/><path class="cls-1" d="M575.1,743.77a4.87,4.87,0,0,0-1.76,9.41,9,9,0,0,0,6.29-6.29,4.86,4.86,0,0,0-4.53-3.12" transform="translate(-13.04 -88.15)"/><path class="cls-1" d="M497.18,675.6a4.87,4.87,0,0,0,1.76-9.41,9.06,9.06,0,0,0-6.3,6.29,4.88,4.88,0,0,0,4.54,3.12" transform="translate(-13.04 -88.15)"/><path class="cls-1" d="M497.18,695.08a4.87,4.87,0,1,0-4.87-4.87,4.87,4.87,0,0,0,4.87,4.87" transform="translate(-13.04 -88.15)"/><path class="cls-1" d="M497.18,714.55a4.87,4.87,0,1,0-4.87-4.87,4.87,4.87,0,0,0,4.87,4.87" transform="translate(-13.04 -88.15)"/><path class="cls-1" d="M497.18,734a4.87,4.87,0,1,0-4.87-4.87,4.87,4.87,0,0,0,4.87,4.87" transform="translate(-13.04 -88.15)"/><path class="cls-1" d="M502.05,748.64a4.86,4.86,0,0,0-9.4-1.75,9,9,0,0,0,6.29,6.29,4.86,4.86,0,0,0,3.11-4.54" transform="translate(-13.04 -88.15)"/><path class="cls-3" d="M287.42,637.9h.16a4.86,4.86,0,0,0,0-9.72H268.1a4.87,4.87,0,0,0,0,9.74h19.32" transform="translate(-13.04 -88.15)"/><path class="cls-3" d="M253.5,633a4.87,4.87,0,1,0-4.87,4.87A4.87,4.87,0,0,0,253.5,633" transform="translate(-13.04 -88.15)"/><path class="cls-3" d="M229.15,637.9a4.87,4.87,0,1,0,0-9.74H209.67a4.87,4.87,0,1,0,0,9.74h19.48" transform="translate(-13.04 -88.15)"/><path class="cls-3" d="M287.58,618.42a4.87,4.87,0,1,0,0-9.74H248.63a4.87,4.87,0,1,0,0,9.74h38.95" transform="translate(-13.04 -88.15)"/><path class="cls-3" d="M232.8,613.55a3.65,3.65,0,1,0-3.65,3.65,3.64,3.64,0,0,0,3.65-3.65" transform="translate(-13.04 -88.15)"/><path class="cls-3" d="M212.41,613.55a2.74,2.74,0,1,0-2.74,2.74,2.74,2.74,0,0,0,2.74-2.74" transform="translate(-13.04 -88.15)"/><path class="cls-3" d="M212.41,594.07a2.74,2.74,0,1,0-2.74,2.74,2.74,2.74,0,0,0,2.74-2.74" transform="translate(-13.04 -88.15)"/><path class="cls-3" d="M213.32,652.51a3.65,3.65,0,1,0-3.65,3.65,3.65,3.65,0,0,0,3.65-3.65" transform="translate(-13.04 -88.15)"/><path class="cls-3" d="M292.45,594.07a4.87,4.87,0,1,0-4.87,4.87,4.87,4.87,0,0,0,4.87-4.87" transform="translate(-13.04 -88.15)"/><path class="cls-3" d="M271.76,594.07a3.66,3.66,0,1,0-3.66,3.65,3.65,3.65,0,0,0,3.66-3.65" transform="translate(-13.04 -88.15)"/><path class="cls-3" d="M251.37,594.07a2.74,2.74,0,1,0-2.74,2.74,2.74,2.74,0,0,0,2.74-2.74" transform="translate(-13.04 -88.15)"/><path class="cls-3" d="M231.89,594.07a2.74,2.74,0,1,0-2.74,2.74,2.74,2.74,0,0,0,2.74-2.74" transform="translate(-13.04 -88.15)"/><path class="cls-3" d="M253.5,574.59a4.87,4.87,0,1,0-4.87,4.87,4.87,4.87,0,0,0,4.87-4.87" transform="translate(-13.04 -88.15)"/><path class="cls-3" d="M229.14,652.51a4.87,4.87,0,1,0-4.86,4.86,4.87,4.87,0,0,0,4.86-4.86" transform="translate(-13.04 -88.15)"/><path class="cls-3" d="M287.58,579.46a4.87,4.87,0,1,0,0-9.73H268.1a4.87,4.87,0,0,0,0,9.73h19.48" transform="translate(-13.04 -88.15)"/><path class="cls-3" d="M232.8,574.59a3.66,3.66,0,1,0-3.65,3.66,3.66,3.66,0,0,0,3.65-3.66" transform="translate(-13.04 -88.15)"/><path class="cls-3" d="M212.4,574.59a2.74,2.74,0,1,0-2.74,2.74,2.74,2.74,0,0,0,2.74-2.74" transform="translate(-13.04 -88.15)"/><path class="cls-3" d="M287.58,657.37a4.87,4.87,0,0,0,0-9.73H238.89a4.87,4.87,0,1,0,0,9.74h48.69Z" transform="translate(-13.04 -88.15)"/><path class="cls-4" d="M108.83,641.84V585.59a15.65,15.65,0,0,1,15.65-15.65h56.24a15.65,15.65,0,0,1,15.65,15.65v56.25a15.65,15.65,0,0,1-15.65,15.64H124.48a15.65,15.65,0,0,1-15.65-15.64" transform="translate(-13.04 -88.15)"/><path class="cls-3" d="M13,447.8V391.55A15.65,15.65,0,0,1,28.68,375.9H84.93a15.65,15.65,0,0,1,15.65,15.65V447.8a15.65,15.65,0,0,1-15.65,15.64H28.68A15.64,15.64,0,0,1,13,447.8" transform="translate(-13.04 -88.15)"/><path class="cls-3" d="M108.83,351.69V295.44a15.65,15.65,0,0,1,15.65-15.65h56.24a15.65,15.65,0,0,1,15.65,15.65v56.25a15.65,15.65,0,0,1-15.65,15.64H124.48a15.65,15.65,0,0,1-15.65-15.64" transform="translate(-13.04 -88.15)"/><path class="cls-5" d="M276.73,271.47H220.48a15.65,15.65,0,0,1-15.65-15.64V199.58a15.65,15.65,0,0,1,15.65-15.65h56.25a15.65,15.65,0,0,1,15.64,15.65v56.25a15.64,15.64,0,0,1-15.64,15.64" transform="translate(-13.04 -88.15)"/><path class="cls-4" d="M13,160.05V103.8A15.65,15.65,0,0,1,28.68,88.15H84.93a15.65,15.65,0,0,1,15.65,15.65v56.25a15.65,15.65,0,0,1-15.65,15.64H28.68A15.64,15.64,0,0,1,13,160.05" transform="translate(-13.04 -88.15)"/><path class="cls-4" d="M396.52,737.51V681.26a15.65,15.65,0,0,1,15.65-15.65h56.25a15.65,15.65,0,0,1,15.64,15.65v56.25a15.64,15.64,0,0,1-15.64,15.64H412.17a15.65,15.65,0,0,1-15.65-15.64" transform="translate(-13.04 -88.15)"/><path class="cls-1" d="M401.78,363.69l-1.29-1.29q.61.68,1.29,1.29" transform="translate(-13.04 -88.15)"/><path class="cls-1" d="M479.21,284.46l.51.51a6.14,6.14,0,0,0-.51-.51" transform="translate(-13.04 -88.15)"/><path class="cls-1" d="M484.06,295.76A15.54,15.54,0,0,0,479.72,285l-.51-.52a15.57,15.57,0,0,0-10.79-4.33h-7.78l23.42,23.42Z" transform="translate(-13.04 -88.15)"/><circle class="cls-5" cx="274.42" cy="312.32" r="4.88"/><circle class="cls-5" cx="287.46" cy="420.01" r="4.88" transform="translate(-101.84 -10.87) rotate(-13.28)"/><circle class="cls-5" cx="287.46" cy="439.54" r="4.88" transform="translate(-106.33 -10.35) rotate(-13.28)"/><circle class="cls-5" cx="277.69" cy="390.71" r="4.88" transform="translate(-95.37 -13.9) rotate(-13.28)"/><circle class="cls-5" cx="264.65" cy="322.09" r="4.88"/><circle class="cls-5" cx="264.65" cy="341.62" r="4.88"/><circle class="cls-5" cx="264.65" cy="361.15" r="4.88"/><circle class="cls-5" cx="267.92" cy="380.94" r="4.88" transform="translate(-93.39 -16.41) rotate(-13.28)"/><circle class="cls-5" cx="267.92" cy="400.47" r="4.88" transform="translate(-97.88 -15.88) rotate(-13.28)"/><circle class="cls-5" cx="254.89" cy="331.85" r="4.88"/><circle class="cls-5" cx="254.89" cy="351.39" r="4.88"/><circle class="cls-5" cx="254.89" cy="370.92" r="4.88"/><circle class="cls-5" cx="245.12" cy="302.55" r="4.88"/><circle class="cls-5" cx="258.16" cy="410.24" r="4.88" transform="translate(-100.38 -17.87) rotate(-13.28)"/><circle class="cls-5" cx="258.16" cy="429.77" r="4.88" transform="translate(-104.87 -17.34) rotate(-13.28)"/><circle class="cls-5" cx="258.16" cy="449.31" r="4.88" transform="translate(-109.36 -16.82) rotate(-13.28)"/><circle class="cls-5" cx="235.35" cy="292.79" r="4.88"/><circle class="cls-5" cx="235.35" cy="312.32" r="4.88"/><circle class="cls-5" cx="248.39" cy="420.01" r="4.88" transform="translate(-102.89 -19.85) rotate(-13.28)"/><circle class="cls-5" cx="248.39" cy="439.54" r="4.88" transform="translate(-107.38 -19.33) rotate(-13.28)"/><circle class="cls-5" cx="235.35" cy="370.92" r="4.88"/><circle class="cls-5" cx="225.59" cy="302.55" r="4.88"/><circle class="cls-5" cx="238.62" cy="410.24" r="4.88" transform="translate(-100.91 -22.35) rotate(-13.28)"/><circle class="cls-5" cx="238.62" cy="429.77" r="4.88" transform="translate(-105.39 -21.83) rotate(-13.28)"/><circle class="cls-5" cx="238.62" cy="449.31" r="4.88" transform="translate(-109.88 -21.31) rotate(-13.28)"/><circle class="cls-5" cx="215.82" cy="292.79" r="4.88"/><circle class="cls-5" cx="215.82" cy="312.32" r="4.88"/><circle class="cls-5" cx="228.86" cy="420.01" r="4.88" transform="translate(-103.41 -24.34) rotate(-13.28)"/><circle class="cls-5" cx="228.86" cy="439.54" r="4.88" transform="translate(-107.9 -23.81) rotate(-13.28)"/><circle class="cls-5" cx="215.82" cy="370.92" r="4.88"/><circle class="cls-5" cx="219.09" cy="390.71" r="4.88" transform="translate(-72.79 -48.01) rotate(-9.22)"/><circle class="cls-5" cx="206.05" cy="322.09" r="4.88"/><circle class="cls-5" cx="206.05" cy="341.62" r="4.88"/><circle class="cls-5" cx="206.05" cy="361.15" r="4.88"/><circle class="cls-5" cx="209.49" cy="380.94" r="4.88" transform="translate(-94.95 -29.83) rotate(-13.28)"/><circle class="cls-5" cx="196.29" cy="312.32" r="4.88"/><circle class="cls-5" cx="209.32" cy="420.01" r="4.88" transform="translate(-103.93 -28.82) rotate(-13.28)"/><circle class="cls-5" cx="209.32" cy="439.54" r="4.88" transform="translate(-108.42 -28.3) rotate(-13.28)"/><circle class="cls-5" cx="287.46" cy="459.07" r="4.88" transform="translate(-110.82 -9.83) rotate(-13.28)"/><circle class="cls-5" cx="209.32" cy="459.07" r="4.88" transform="translate(-112.91 -27.78) rotate(-13.28)"/><circle class="cls-5" cx="287.46" cy="380.94" r="4.88" transform="translate(-92.87 -11.92) rotate(-13.28)"/><path class="cls-1" d="M108.83,443.17V455a9,9,0,0,0,9,9h11.86a49.83,49.83,0,0,1-20.91-20.92Z" transform="translate(-13.04 -88.15)"/><path class="cls-1" d="M108.91,420.28a43.81,43.81,0,0,0,43.81,43.81h.7a2.6,2.6,0,0,0-.74-.11,43.73,43.73,0,1,1,43.73-43.73,3,3,0,0,0,.1.73c0-.23,0-.46,0-.69a43.81,43.81,0,0,0-87.61,0Z" transform="translate(-13.04 -88.15)"/><path class="cls-1" d="M152.68,376.51a43.73,43.73,0,1,0,0,87.46,2.6,2.6,0,0,1,.74.11h34.06a9,9,0,0,0,9-9V421a3,3,0,0,1-.1-.73A43.78,43.78,0,0,0,152.68,376.51Zm28,15.74a39.64,39.64,0,0,1,0,56,2.87,2.87,0,1,1-4.06-4.06,33.89,33.89,0,0,0,0-47.86,2.87,2.87,0,1,1,4.06-4.06Zm1.82,28a29.84,29.84,0,0,1-29.81,29.81,2.88,2.88,0,0,1,0-5.75,24.06,24.06,0,1,0-24.06-24.06,2.88,2.88,0,0,1-5.75,0,29.81,29.81,0,0,1,59.62,0Zm-29.33,14.82a14.37,14.37,0,0,0,4.22-.63l.2-.06.17-.06a14.18,14.18,0,0,0,5.36-3.39l.16-.14.15-.17a14.3,14.3,0,0,0,3.39-5.36,1.09,1.09,0,0,0,.05-.17,1.59,1.59,0,0,0,.07-.2,14.37,14.37,0,0,0,.63-4.22,3.05,3.05,0,0,1,.06-.6,14.32,14.32,0,0,0-4.2-9.81,2.87,2.87,0,0,1,4.06-4.06A20.36,20.36,0,0,1,138.69,435a2.87,2.87,0,0,1,4.06-4.06,14.31,14.31,0,0,0,9.81,4.21A2.46,2.46,0,0,1,153.16,435.06Zm-17.75-11.95a2.87,2.87,0,0,1-2.87-2.87,20.17,20.17,0,0,1,20.14-20.14,2.87,2.87,0,0,1,0,5.74,14.42,14.42,0,0,0-14.4,14.4A2.86,2.86,0,0,1,135.41,423.11ZM125,448.46l-.26-.23a39.48,39.48,0,0,1-8.42-12.47c0-.12-.11-.25-.16-.38L116,435a39.5,39.5,0,0,1-2.86-14.78c0-.12,0-.23,0-.35a39.45,39.45,0,0,1,11.57-27.64,2.87,2.87,0,1,1,4.06,4.06,33.9,33.9,0,0,0-7.46,36.57l.12.3c0,.11.1.22.14.33a33.9,33.9,0,0,0,31.13,20.57,2.87,2.87,0,0,1,0,5.74A39.47,39.47,0,0,1,125,448.46Z" transform="translate(-13.04 -88.15)"/><path class="cls-1" d="M129.74,376.39H117.88a9,9,0,0,0-9,9.05v11.87a49.83,49.83,0,0,1,20.91-20.92Z" transform="translate(-13.04 -88.15)"/><path class="cls-1" d="M187.66,385.26a49.58,49.58,0,0,1,8.86,12V385.44a9,9,0,0,0-9-9.05H175.62A49.67,49.67,0,0,1,187.66,385.26Z" transform="translate(-13.04 -88.15)"/><polygon class="cls-1" points="433.35 191.96 471.03 229.64 471.03 243.88 419.12 191.96 433.35 191.96"/><path class="cls-1" d="M408.73,285.19l0,0,73.69,73.68a15.59,15.59,0,0,0,1.61-6.89v-5.73L417.9,280.12h-5.73a15.59,15.59,0,0,0-6.89,1.61l3.43,3.43,0,0" transform="translate(-13.04 -88.15)"/><path class="cls-1" d="M468.42,367.66a15.59,15.59,0,0,0,6.91-1.63l-73.69-73.69,0,0,0,0-3.43-3.43a15.55,15.55,0,0,0-1.63,6.91v5.7l66.2,66.2Z" transform="translate(-13.04 -88.15)"/><polygon class="cls-1" points="435.44 279.5 421.2 279.5 383.49 241.79 383.49 227.56 435.44 279.5"/><path class="cls-1" d="M420,367.66l-23.47-23.47V352a15.59,15.59,0,0,0,4,10.39l1.29,1.29a15.59,15.59,0,0,0,10.39,4Z" transform="translate(-13.04 -88.15)"/><path class="cls-5" d="M112.8,479l1.29-1.29A13.09,13.09,0,0,0,112.8,479" transform="translate(-13.04 -88.15)"/><path class="cls-5" d="M192,556.41l-.51.51.51-.51" transform="translate(-13.04 -88.15)"/><path class="cls-5" d="M180.72,561.26a15.6,15.6,0,0,0,10.8-4.34l.51-.51a15.6,15.6,0,0,0,4.34-10.8v-7.78l-23.43,23.43Z" transform="translate(-13.04 -88.15)"/><polygon class="cls-5" points="183.33 435.43 145.66 473.11 131.42 473.11 183.33 421.19 183.33 435.43"/><path class="cls-5" d="M191.3,485.93l0,0-73.68,73.69a15.59,15.59,0,0,0,6.89,1.61h5.73l66.16-66.16v-5.73a15.46,15.46,0,0,0-1.62-6.89l-3.42,3.42,0,0" transform="translate(-13.04 -88.15)"/><path class="cls-5" d="M108.83,545.61a15.46,15.46,0,0,0,1.63,6.92l73.69-73.69,0,0,0,0,3.43-3.44a15.59,15.59,0,0,0-6.92-1.62H175l-66.2,66.2Z" transform="translate(-13.04 -88.15)"/><polygon class="cls-5" points="147.74 385.57 95.79 437.51 95.79 423.28 133.51 385.57 147.74 385.57"/><path class="cls-5" d="M108.83,497.18l23.46-23.46h-7.81a15.58,15.58,0,0,0-10.39,4l-1.3,1.29a15.62,15.62,0,0,0-4,10.39Z" transform="translate(-13.04 -88.15)"/><path class="cls-5" d="M369,652.48a4.88,4.88,0,1,0-4.88,4.87,4.87,4.87,0,0,0,4.88-4.87" transform="translate(-13.04 -88.15)"/><path class="cls-5" d="M349.54,652.48a4.88,4.88,0,1,0-4.88,4.87,4.88,4.88,0,0,0,4.88-4.87" transform="translate(-13.04 -88.15)"/><path class="cls-5" d="M330,652.48a4.88,4.88,0,1,0-4.87,4.87,4.87,4.87,0,0,0,4.87-4.87" transform="translate(-13.04 -88.15)"/><path class="cls-5" d="M378.79,623.22a9.76,9.76,0,1,0,9.75,9.75,9.76,9.76,0,0,0-9.75-9.75" transform="translate(-13.04 -88.15)"/><path class="cls-5" d="M305.66,637.85a4.88,4.88,0,1,0-4.88-4.88,4.87,4.87,0,0,0,4.88,4.88" transform="translate(-13.04 -88.15)"/><path class="cls-5" d="M383.67,608.59a4.88,4.88,0,1,0,4.87,4.88,4.88,4.88,0,0,0-4.87-4.88" transform="translate(-13.04 -88.15)"/><path class="cls-5" d="M364.16,618.35a4.88,4.88,0,1,0-4.87-4.88,4.88,4.88,0,0,0,4.87,4.88" transform="translate(-13.04 -88.15)"/><path class="cls-5" d="M305.66,618.35a4.88,4.88,0,1,0-4.88-4.88,4.88,4.88,0,0,0,4.88,4.88" transform="translate(-13.04 -88.15)"/><path class="cls-5" d="M383.67,589.09a4.88,4.88,0,1,0,4.87,4.88,4.88,4.88,0,0,0-4.87-4.88" transform="translate(-13.04 -88.15)"/><path class="cls-5" d="M364.16,603.72a9.75,9.75,0,1,0-9.75-9.75,9.76,9.76,0,0,0,9.75,9.75" transform="translate(-13.04 -88.15)"/><path class="cls-5" d="M344.66,598.84a4.88,4.88,0,1,0-4.87-4.87,4.88,4.88,0,0,0,4.87,4.87" transform="translate(-13.04 -88.15)"/><path class="cls-5" d="M325.16,598.84a4.88,4.88,0,1,0-4.88-4.87,4.88,4.88,0,0,0,4.88,4.87" transform="translate(-13.04 -88.15)"/><path class="cls-5" d="M305.66,598.84a4.88,4.88,0,1,0-4.88-4.87,4.87,4.87,0,0,0,4.88,4.87" transform="translate(-13.04 -88.15)"/><path class="cls-5" d="M383.67,569.76a4.88,4.88,0,1,0,4.87,4.87,4.87,4.87,0,0,0-4.87-4.87" transform="translate(-13.04 -88.15)"/><path class="cls-5" d="M359.29,574.47a4.88,4.88,0,1,0,4.87-4.88,4.87,4.87,0,0,0-4.87,4.88" transform="translate(-13.04 -88.15)"/><path class="cls-5" d="M339.79,574.47a4.88,4.88,0,1,0,4.87-4.88,4.87,4.87,0,0,0-4.87,4.88" transform="translate(-13.04 -88.15)"/><path class="cls-5" d="M320.28,574.47a4.88,4.88,0,1,0,4.88-4.88,4.88,4.88,0,0,0-4.88,4.88" transform="translate(-13.04 -88.15)"/><path class="cls-5" d="M310.53,652.48a4.88,4.88,0,1,0-4.87,4.87,4.87,4.87,0,0,0,4.87-4.87" transform="translate(-13.04 -88.15)"/><path class="cls-5" d="M300.78,576.9a7.32,7.32,0,1,0,7.31-7.31,7.31,7.31,0,0,0-7.31,7.31" transform="translate(-13.04 -88.15)"/><path class="cls-5" d="M383.67,647.6a4.88,4.88,0,1,0,4.87,4.88,4.87,4.87,0,0,0-4.87-4.88" transform="translate(-13.04 -88.15)"/><path class="cls-5" d="M334.91,642.73a19.51,19.51,0,1,0-19.5-19.51,19.51,19.51,0,0,0,19.5,19.51" transform="translate(-13.04 -88.15)"/></svg>