<svg id="Layer_1" data-name="Layer 1" xmlns="http://www.w3.org/2000/svg" viewBox="0 0 733.51 1111.47"><defs><style>.cls-1{fill:#fff;}</style></defs><title>Square Pattern Large Monotone White</title><path class="cls-1" d="M203.13,93.27a3.78,3.78,0,1,0,3.78-3.77,3.78,3.78,0,0,0-3.78,3.77" transform="translate(-57.37 -42.6)"/><path class="cls-1" d="M215.71,105.85a3.78,3.78,0,1,0,3.78-3.77,3.78,3.78,0,0,0-3.78,3.77" transform="translate(-57.37 -42.6)"/><path class="cls-1" d="M232.07,89.5a3.78,3.78,0,1,0,3.77,3.77,3.79,3.79,0,0,0-3.77-3.77" transform="translate(-57.37 -42.6)"/><path class="cls-1" d="M232.07,76.92a3.78,3.78,0,1,0,3.77,3.77,3.77,3.77,0,0,0-3.77-3.77" transform="translate(-57.37 -42.6)"/><path class="cls-1" d="M244.65,147.37a3.77,3.77,0,1,0-3.77-3.77,3.77,3.77,0,0,0,3.77,3.77" transform="translate(-57.37 -42.6)"/><path class="cls-1" d="M266,156.18h7.55a3.78,3.78,0,0,0-7.55,0" transform="translate(-57.37 -42.6)"/><path class="cls-1" d="M244.65,64.34a3.78,3.78,0,1,0,3.77,3.77,3.77,3.77,0,0,0-3.77-3.77" transform="translate(-57.37 -42.6)"/><path class="cls-1" d="M257.23,46.72A3.77,3.77,0,0,0,261,43h-7.55a3.77,3.77,0,0,0,3.77,3.77" transform="translate(-57.37 -42.6)"/><path class="cls-1" d="M244.65,51.76a3.77,3.77,0,1,0,3.77,3.77,3.77,3.77,0,0,0-3.77-3.77" transform="translate(-57.37 -42.6)"/><path class="cls-1" d="M181.74,106.47a49.77,49.77,0,0,1,49.71,49.71h1.24a51,51,0,0,0-50.95-50.94Z" transform="translate(-57.37 -42.6)"/><path class="cls-1" d="M181.74,112.77a43.46,43.46,0,0,1,43.37,43.41h1.24a44.71,44.71,0,0,0-44.61-44.65Z" transform="translate(-57.37 -42.6)"/><path class="cls-1" d="M181.74,119.06a37.17,37.17,0,0,1,37.08,37.12h1.23a38.41,38.41,0,0,0-38.31-38.36Z" transform="translate(-57.37 -42.6)"/><path class="cls-1" d="M181.74,125.35a30.87,30.87,0,0,1,30.78,30.83h1.24a32.09,32.09,0,0,0-32-32.06Z" transform="translate(-57.37 -42.6)"/><path class="cls-1" d="M181.74,131.64a24.56,24.56,0,0,1,24.53,24.53h1.24a25.79,25.79,0,0,0-25.77-25.76Z" transform="translate(-57.37 -42.6)"/><path class="cls-1" d="M181.74,138A18.24,18.24,0,0,1,200,156.17h1.23a19.47,19.47,0,0,0-19.45-19.45Z" transform="translate(-57.37 -42.6)"/><path class="cls-1" d="M181.74,144.24a11.94,11.94,0,0,1,11.93,11.93h1.23A13.17,13.17,0,0,0,181.74,143Z" transform="translate(-57.37 -42.6)"/><path class="cls-1" d="M294,149.27a49.71,49.71,0,0,1,0-99.4,12.94,12.94,0,0,0-.64-1.22,50.94,50.94,0,0,0,0,101.83c.23-.39.44-.8.63-1.21" transform="translate(-57.37 -42.6)"/><path class="cls-1" d="M295,54.92h-.05a44.65,44.65,0,0,0,0,89.3H295V143h-.05a43.42,43.42,0,0,1,0-86.84H295Z" transform="translate(-57.37 -42.6)"/><path class="cls-1" d="M295,61.21h-.05a38.36,38.36,0,0,0,0,76.72H295v-1.24h-.05a37.12,37.12,0,0,1,0-74.24H295Z" transform="translate(-57.37 -42.6)"/><path class="cls-1" d="M295,67.5s0,0-.05,0a32.07,32.07,0,1,0,0,64.13h0v-1.24h-.05a30.83,30.83,0,1,1,0-61.65H295Z" transform="translate(-57.37 -42.6)"/><path class="cls-1" d="M295,73.79h0a25.77,25.77,0,0,0,0,51.53v-1.24a24.53,24.53,0,1,1,0-49Z" transform="translate(-57.37 -42.6)"/><path class="cls-1" d="M295,80.1h0A19.46,19.46,0,1,0,295,119v-1.24a18.22,18.22,0,1,1,0-36.43Z" transform="translate(-57.37 -42.6)"/><path class="cls-1" d="M295,87.63h0V86.39a13.17,13.17,0,0,0,0,26.33v-1.24a11.93,11.93,0,1,1,0-23.85" transform="translate(-57.37 -42.6)"/><path class="cls-1" d="M181.74,93.9h0A51,51,0,0,0,232.73,43H231.5a49.77,49.77,0,0,1-49.71,49.71h0Z" transform="translate(-57.37 -42.6)"/><path class="cls-1" d="M181.74,87.61A44.71,44.71,0,0,0,226.4,43h-1.24a43.47,43.47,0,0,1-43.42,43.42Z" transform="translate(-57.37 -42.6)"/><path class="cls-1" d="M181.74,81.31A38.41,38.41,0,0,0,220.1,43h-1.24a37.15,37.15,0,0,1-37.12,37.12Z" transform="translate(-57.37 -42.6)"/><path class="cls-1" d="M181.74,75A32.11,32.11,0,0,0,213.81,43h-1.24a30.87,30.87,0,0,1-30.83,30.83Z" transform="translate(-57.37 -42.6)"/><path class="cls-1" d="M181.74,68.7h0A25.79,25.79,0,0,0,207.55,43h-1.24a24.55,24.55,0,0,1-24.52,24.52s0,0,0,0Z" transform="translate(-57.37 -42.6)"/><path class="cls-1" d="M181.74,62.39h0A19.47,19.47,0,0,0,201.24,43H200a18.25,18.25,0,0,1-18.22,18.21h0Z" transform="translate(-57.37 -42.6)"/><path class="cls-1" d="M181.74,56.1h0A13.18,13.18,0,0,0,195,43h-1.24a11.94,11.94,0,0,1-11.92,11.92h0Z" transform="translate(-57.37 -42.6)"/><path class="cls-1" d="M784.59,493.37h-25.2a6.3,6.3,0,1,0,0,12.6h25.2a6.29,6.29,0,0,0,0-12.58Z" transform="translate(-57.37 -42.6)"/><path class="cls-1" d="M740.49,499.66a6.3,6.3,0,1,0-6.3,6.3A6.3,6.3,0,0,0,740.49,499.66Z" transform="translate(-57.37 -42.6)"/><path class="cls-1" d="M709,493.36H683.8a6.3,6.3,0,1,0,0,12.6H709a6.3,6.3,0,0,0,0-12.6Z" transform="translate(-57.37 -42.6)"/><path class="cls-1" d="M784.59,468.16h-50.4a6.3,6.3,0,0,0,0,12.6h50.4a6.3,6.3,0,0,0,0-12.6Z" transform="translate(-57.37 -42.6)"/><path class="cls-1" d="M709,479.19a4.73,4.73,0,1,0-4.73-4.73A4.72,4.72,0,0,0,709,479.19Z" transform="translate(-57.37 -42.6)"/><path class="cls-1" d="M683.8,470.92a3.54,3.54,0,1,0,3.54,3.54A3.53,3.53,0,0,0,683.8,470.92Z" transform="translate(-57.37 -42.6)"/><path class="cls-1" d="M683.8,445.72a3.55,3.55,0,1,0,3.54,3.54A3.54,3.54,0,0,0,683.8,445.72Z" transform="translate(-57.37 -42.6)"/><path class="cls-1" d="M683.8,520.13a4.73,4.73,0,1,0,4.72,4.72A4.72,4.72,0,0,0,683.8,520.13Z" transform="translate(-57.37 -42.6)"/><path class="cls-1" d="M784.59,443a6.3,6.3,0,1,0,6.3,6.3A6.31,6.31,0,0,0,784.59,443Z" transform="translate(-57.37 -42.6)"/><path class="cls-1" d="M754.67,449.26a4.72,4.72,0,1,0,4.72-4.72A4.72,4.72,0,0,0,754.67,449.26Z" transform="translate(-57.37 -42.6)"/><path class="cls-1" d="M730.65,449.26a3.55,3.55,0,1,0,3.54-3.54A3.55,3.55,0,0,0,730.65,449.26Z" transform="translate(-57.37 -42.6)"/><path class="cls-1" d="M709,452.81a3.55,3.55,0,1,0-3.55-3.55A3.55,3.55,0,0,0,709,452.81Z" transform="translate(-57.37 -42.6)"/><path class="cls-1" d="M759.39,430.37h25.2a6.3,6.3,0,0,0,0-12.6h-25.2a6.3,6.3,0,1,0,0,12.6Z" transform="translate(-57.37 -42.6)"/><path class="cls-1" d="M734.19,430.37a6.3,6.3,0,1,0-6.3-6.3A6.3,6.3,0,0,0,734.19,430.37Z" transform="translate(-57.37 -42.6)"/><circle class="cls-1" cx="645.32" cy="482.25" r="6.3"/><path class="cls-1" d="M709,428.79a4.73,4.73,0,1,0-4.72-4.72A4.72,4.72,0,0,0,709,428.79Z" transform="translate(-57.37 -42.6)"/><path class="cls-1" d="M683.79,427.61a3.55,3.55,0,1,0-3.54-3.54A3.54,3.54,0,0,0,683.79,427.61Z" transform="translate(-57.37 -42.6)"/><path class="cls-1" d="M784.59,518.57h-63a6.3,6.3,0,1,0,0,12.59h63a6.29,6.29,0,0,0,0-12.57Z" transform="translate(-57.37 -42.6)"/><circle class="cls-1" cx="200.25" cy="436.09" r="3.78" transform="translate(-152.21 15.07) rotate(-13.28)"/><circle class="cls-1" cx="168.07" cy="393.49" r="3.78"/><circle class="cls-1" cx="193.27" cy="393.49" r="3.78"/><circle class="cls-1" cx="218.46" cy="393.49" r="3.78"/><path class="cls-1" d="M187.65,455a6.3,6.3,0,1,0-6.3-6.3A6.3,6.3,0,0,0,187.65,455Zm0-10.08a3.78,3.78,0,1,1-3.78,3.78A3.78,3.78,0,0,1,187.65,444.91Z" transform="translate(-57.37 -42.6)"/><path class="cls-1" d="M212.84,455a6.3,6.3,0,1,0-6.29-6.3A6.3,6.3,0,0,0,212.84,455Zm0-10.08a3.78,3.78,0,1,1-3.77,3.78A3.78,3.78,0,0,1,212.84,444.91Z" transform="translate(-57.37 -42.6)"/><path class="cls-1" d="M238,455a6.3,6.3,0,1,0-6.3-6.3A6.3,6.3,0,0,0,238,455Zm0-10.08a3.78,3.78,0,1,1-3.78,3.78A3.78,3.78,0,0,1,238,444.91Z" transform="translate(-57.37 -42.6)"/><path class="cls-1" d="M263.24,455a6.3,6.3,0,1,0-6.3-6.3A6.3,6.3,0,0,0,263.24,455Zm0-10.08a3.78,3.78,0,1,1-3.78,3.78A3.78,3.78,0,0,1,263.24,444.91Z" transform="translate(-57.37 -42.6)"/><path class="cls-1" d="M288.44,442.39a6.3,6.3,0,1,0,6.29,6.3A6.3,6.3,0,0,0,288.44,442.39Zm0,10.08a3.78,3.78,0,1,1,3.77-3.78A3.78,3.78,0,0,1,288.44,452.47Z" transform="translate(-57.37 -42.6)"/><path class="cls-1" d="M200.25,467.59a6.3,6.3,0,1,0-6.3-6.3A6.3,6.3,0,0,0,200.25,467.59Zm0-10.08a3.78,3.78,0,1,1-3.78,3.78A3.78,3.78,0,0,1,200.25,457.51Z" transform="translate(-57.37 -42.6)"/><path class="cls-1" d="M225.44,467.59a6.3,6.3,0,1,0-6.3-6.3A6.3,6.3,0,0,0,225.44,467.59Zm0-10.08a3.78,3.78,0,1,1-3.78,3.78A3.78,3.78,0,0,1,225.44,457.51Z" transform="translate(-57.37 -42.6)"/><path class="cls-1" d="M250.64,467.59a6.3,6.3,0,1,0-6.3-6.3A6.3,6.3,0,0,0,250.64,467.59Zm0-10.08a3.78,3.78,0,1,1-3.78,3.78A3.78,3.78,0,0,1,250.64,457.51Z" transform="translate(-57.37 -42.6)"/><path class="cls-1" d="M275.84,455a6.3,6.3,0,1,0,6.3,6.3A6.3,6.3,0,0,0,275.84,455Zm0,10.08a3.78,3.78,0,1,1,3.78-3.78A3.78,3.78,0,0,1,275.84,465.07Z" transform="translate(-57.37 -42.6)"/><circle class="cls-1" cx="142.87" cy="443.88" r="3.78"/><circle class="cls-1" cx="225.44" cy="486.49" r="3.78" transform="translate(-163.11 22.21) rotate(-13.28)"/><circle class="cls-1" cx="250.64" cy="486.49" r="3.78" transform="translate(-162.44 27.99) rotate(-13.28)"/><circle class="cls-1" cx="275.84" cy="486.49" r="3.78" transform="translate(-161.77 33.78) rotate(-13.28)"/><path class="cls-1" d="M187.65,505.38a6.3,6.3,0,1,0-6.3-6.29A6.3,6.3,0,0,0,187.65,505.38Zm0-10.07a3.78,3.78,0,1,1-3.78,3.78A3.78,3.78,0,0,1,187.65,495.31Z" transform="translate(-57.37 -42.6)"/><path class="cls-1" d="M212.84,492.79a6.3,6.3,0,1,0,6.3,6.3A6.3,6.3,0,0,0,212.84,492.79Zm0,10.08a3.78,3.78,0,1,1,3.78-3.78A3.78,3.78,0,0,1,212.84,502.87Z" transform="translate(-57.37 -42.6)"/><path class="cls-1" d="M238,492.79a6.3,6.3,0,1,0,6.3,6.3A6.3,6.3,0,0,0,238,492.79Zm0,10.08a3.78,3.78,0,1,1,3.78-3.78A3.78,3.78,0,0,1,238,502.87Z" transform="translate(-57.37 -42.6)"/><path class="cls-1" d="M263.24,492.79a6.3,6.3,0,1,0,6.3,6.3A6.3,6.3,0,0,0,263.24,492.79Zm0,10.08a3.78,3.78,0,1,1,3.78-3.78A3.78,3.78,0,0,1,263.24,502.87Z" transform="translate(-57.37 -42.6)"/><path class="cls-1" d="M288.44,492.79a6.3,6.3,0,1,0,6.29,6.3A6.3,6.3,0,0,0,288.44,492.79Zm0,10.08a3.78,3.78,0,1,1,3.77-3.78A3.78,3.78,0,0,1,288.44,502.87Z" transform="translate(-57.37 -42.6)"/><path class="cls-1" d="M200.25,505.38a6.3,6.3,0,1,0,6.3,6.3A6.31,6.31,0,0,0,200.25,505.38Zm0,10.08a3.78,3.78,0,1,1,3.78-3.78A3.78,3.78,0,0,1,200.25,515.46Z" transform="translate(-57.37 -42.6)"/><path class="cls-1" d="M225.44,505.38a6.3,6.3,0,1,0,6.3,6.3A6.31,6.31,0,0,0,225.44,505.38Zm0,10.08a3.78,3.78,0,1,1,3.78-3.78A3.78,3.78,0,0,1,225.44,515.46Z" transform="translate(-57.37 -42.6)"/><path class="cls-1" d="M250.64,505.38a6.3,6.3,0,1,0,6.3,6.3A6.31,6.31,0,0,0,250.64,505.38Zm0,10.08a3.78,3.78,0,1,1,3.78-3.78A3.78,3.78,0,0,1,250.64,515.46Z" transform="translate(-57.37 -42.6)"/><path class="cls-1" d="M275.84,505.38a6.3,6.3,0,1,0,6.3,6.3A6.31,6.31,0,0,0,275.84,505.38Zm0,10.08a3.78,3.78,0,1,1,3.78-3.78A3.78,3.78,0,0,1,275.84,515.46Z" transform="translate(-57.37 -42.6)"/><circle class="cls-1" cx="130.27" cy="431.28" r="6.3"/><circle class="cls-1" cx="155.47" cy="431.28" r="6.3"/><circle class="cls-1" cx="238.04" cy="473.89" r="6.3" transform="translate(-159.88 24.76) rotate(-13.28)"/><circle class="cls-1" cx="263.24" cy="473.89" r="6.3" transform="translate(-159.21 30.55) rotate(-13.28)"/><circle class="cls-1" cx="231.06" cy="431.28" r="6.3"/><path class="cls-1" d="M187.65,429.79a6.29,6.29,0,0,0,2.26-12.17,11.72,11.72,0,0,0-8.13,8.14A6.29,6.29,0,0,0,187.65,429.79Z" transform="translate(-57.37 -42.6)"/><circle class="cls-1" cx="155.47" cy="380.89" r="6.3"/><circle class="cls-1" cx="238.04" cy="423.5" r="6.3" transform="translate(-148.3 23.41) rotate(-13.28)"/><circle class="cls-1" cx="263.24" cy="423.5" r="6.3" transform="translate(-147.63 29.2) rotate(-13.28)"/><path class="cls-1" d="M282.14,423.5a6.3,6.3,0,0,0,12.17,2.26,11.75,11.75,0,0,0-8.14-8.14A6.3,6.3,0,0,0,282.14,423.5Z" transform="translate(-57.37 -42.6)"/><path class="cls-1" d="M194,524.28A6.29,6.29,0,0,0,181.78,522a11.69,11.69,0,0,0,8.13,8.13A6.29,6.29,0,0,0,194,524.28Z" transform="translate(-57.37 -42.6)"/><circle class="cls-1" cx="155.47" cy="481.68" r="6.3"/><circle class="cls-1" cx="238.04" cy="524.28" r="6.3" transform="translate(-171.46 26.11) rotate(-13.28)"/><circle class="cls-1" cx="263.24" cy="524.28" r="6.3" transform="translate(-170.79 31.9) rotate(-13.28)"/><path class="cls-1" d="M288.44,518a6.3,6.3,0,0,0-2.27,12.17,11.72,11.72,0,0,0,8.14-8.13A6.3,6.3,0,0,0,288.44,518Z" transform="translate(-57.37 -42.6)"/><path class="cls-1" d="M249.75,669.15h1.78a2.65,2.65,0,0,0,2.65-2.65v-.89H247.1v.89A2.65,2.65,0,0,0,249.75,669.15Z" transform="translate(-57.37 -42.6)"/><path class="cls-1" d="M294.73,681.85a2.65,2.65,0,0,0-2.65,2.65h0a2.65,2.65,0,0,0,2.65,2.65h0v-5.31Z" transform="translate(-57.37 -42.6)"/><path class="cls-1" d="M181.35,716.63V728a5.67,5.67,0,0,0,0-11.34Z" transform="translate(-57.37 -42.6)"/><path class="cls-1" d="M207.18,665.61a5.67,5.67,0,1,0,11.33,0H207.18Z" transform="translate(-57.37 -42.6)"/><path class="cls-1" d="M263.24,671.28a5.67,5.67,0,0,0,5.67-5.67H257.57A5.67,5.67,0,0,0,263.24,671.28Z" transform="translate(-57.37 -42.6)"/><path class="cls-1" d="M199.36,669.15h1.77a2.66,2.66,0,0,0,2.66-2.65v-.89H196.7v.89A2.66,2.66,0,0,0,199.36,669.15Z" transform="translate(-57.37 -42.6)"/><path class="cls-1" d="M289.07,734.9a5.66,5.66,0,0,0,5.66,5.67V729.23A5.66,5.66,0,0,0,289.07,734.9Z" transform="translate(-57.37 -42.6)"/><path class="cls-1" d="M250.64,773.33A5.66,5.66,0,0,0,245,779h11.34A5.66,5.66,0,0,0,250.64,773.33Z" transform="translate(-57.37 -42.6)"/><path class="cls-1" d="M201.57,775.81l-1.32,1.33-1.33-1.33a1.43,1.43,0,0,0-2,0,1.41,1.41,0,0,0,0,2l1.17,1.17h4.34l1.17-1.17a1.42,1.42,0,0,0-2-2Z" transform="translate(-57.37 -42.6)"/><path class="cls-1" d="M184.69,744.16a1.41,1.41,0,0,0-2,0l-1.33,1.32v4l1.33,1.33a1.42,1.42,0,0,0,2-2l-1.33-1.33,1.33-1.33A1.43,1.43,0,0,0,184.69,744.16Z" transform="translate(-57.37 -42.6)"/><rect class="cls-1" x="140.22" y="651.84" width="5.31" height="5.31" rx="2.65"/><rect class="cls-1" x="164.53" y="638.36" width="7.09" height="7.09" rx="2.65"/><rect class="cls-1" x="189.72" y="638.36" width="7.09" height="7.09" rx="2.65"/><circle class="cls-1" cx="136.57" cy="635.6" r="2.66"/><rect class="cls-1" x="188.54" y="649.78" width="9.45" height="9.45" rx="2.65"/><rect class="cls-1" x="203.21" y="639.24" width="5.31" height="5.31" rx="2.65"/><rect class="cls-1" x="201.14" y="649.78" width="9.45" height="9.45" rx="2.65"/><rect class="cls-1" x="214.92" y="650.96" width="7.09" height="7.09" rx="2.65"/><rect class="cls-1" x="139.33" y="676.15" width="7.09" height="7.09" rx="2.65"/><path class="cls-1" d="M214.91,717.58h-4.13a2.66,2.66,0,0,0-2.66,2.65v29.34a2.66,2.66,0,0,0,2.66,2.65h4.13a2.66,2.66,0,0,0,2.66-2.65V720.23A2.66,2.66,0,0,0,214.91,717.58Z" transform="translate(-57.37 -42.6)"/><rect class="cls-1" x="175.57" y="662" width="10.2" height="10.2" rx="5.1"/><rect class="cls-1" x="188.16" y="662" width="10.2" height="10.2" rx="5.1"/><path class="cls-1" d="M225.44,740a5.1,5.1,0,1,0-5.1-5.1A5.1,5.1,0,0,0,225.44,740Z" transform="translate(-57.37 -42.6)"/><path class="cls-1" d="M284.21,705h-23a2.66,2.66,0,0,0-2.66,2.65V737a2.65,2.65,0,0,0,2.66,2.65h4.14A2.65,2.65,0,0,0,268,737V717.08a2.66,2.66,0,0,1,2.66-2.65h13.59a2.66,2.66,0,0,0,2.65-2.66v-4.14A2.65,2.65,0,0,0,284.21,705Z" transform="translate(-57.37 -42.6)"/><rect class="cls-1" x="176.42" y="700.64" width="8.5" height="8.5" rx="2.39"/><circle class="cls-1" cx="168.07" cy="723.79" r="5.67"/><rect class="cls-1" x="189.02" y="700.64" width="8.5" height="8.5" rx="2.39"/><rect class="cls-1" x="214.92" y="688.75" width="7.09" height="7.09" rx="2.65"/><rect class="cls-1" x="215.81" y="702.24" width="5.31" height="5.31" rx="2.65"/><rect class="cls-1" x="140.22" y="714.84" width="5.31" height="5.31" rx="2.65"/><rect class="cls-1" x="202.32" y="713.95" width="7.09" height="7.09" rx="2.65"/><path class="cls-1" d="M266.58,744.16a1.41,1.41,0,0,0-2,0l-1.33,1.32-1.33-1.32a1.42,1.42,0,1,0-2,2l1.32,1.33-1.32,1.33a1.41,1.41,0,0,0,0,2,1.43,1.43,0,0,0,2,0l1.33-1.33,1.33,1.33a1.42,1.42,0,0,0,2-2l-1.33-1.33,1.33-1.33A1.43,1.43,0,0,0,266.58,744.16Z" transform="translate(-57.37 -42.6)"/><path class="cls-1" d="M228.78,744.16a1.41,1.41,0,0,0-2,0l-1.33,1.32-1.32-1.32a1.42,1.42,0,0,0-2,2l1.33,1.33-1.33,1.33a1.42,1.42,0,0,0,2,2l1.32-1.33,1.33,1.33a1.43,1.43,0,0,0,2,0,1.41,1.41,0,0,0,0-2l-1.32-1.33,1.32-1.33A1.41,1.41,0,0,0,228.78,744.16Z" transform="translate(-57.37 -42.6)"/><path class="cls-1" d="M272.5,675.25a1.43,1.43,0,0,0,2,0l1.33-1.33,1.32,1.33a1.43,1.43,0,0,0,2-2l-1.33-1.32,1.33-1.33a1.42,1.42,0,1,0-2-2l-1.32,1.32-1.33-1.32a1.42,1.42,0,0,0-2,2l1.32,1.33-1.32,1.32A1.42,1.42,0,0,0,272.5,675.25Z" transform="translate(-57.37 -42.6)"/><path class="cls-1" d="M222.1,713a1.42,1.42,0,0,0,2,0l1.32-1.32,1.33,1.32a1.42,1.42,0,0,0,2-2l-1.32-1.33,1.32-1.32a1.42,1.42,0,0,0-2-2l-1.33,1.33-1.32-1.33a1.43,1.43,0,0,0-2,2l1.33,1.32L222.1,711A1.43,1.43,0,0,0,222.1,713Z" transform="translate(-57.37 -42.6)"/><path class="cls-1" d="M209.5,687.85a1.44,1.44,0,0,0,2,0l1.32-1.33,1.33,1.33a1.43,1.43,0,1,0,2-2l-1.33-1.32,1.33-1.33a1.42,1.42,0,1,0-2-2l-1.33,1.32-1.32-1.32a1.42,1.42,0,1,0-2,2l1.33,1.33-1.33,1.32A1.44,1.44,0,0,0,209.5,687.85Z" transform="translate(-57.37 -42.6)"/><path class="cls-1" d="M309.11,1085.28v-1.77a2.65,2.65,0,0,0-2.65-2.66h-.89v7.09h.89A2.65,2.65,0,0,0,309.11,1085.28Z" transform="translate(-57.37 -42.6)"/><path class="cls-1" d="M321.81,1040.3a2.66,2.66,0,0,0,2.66,2.66h0a2.66,2.66,0,0,0,2.66-2.66h-5.32Z" transform="translate(-57.37 -42.6)"/><path class="cls-1" d="M356.59,1153.69h11.34a5.67,5.67,0,0,0-11.34,0Z" transform="translate(-57.37 -42.6)"/><path class="cls-1" d="M305.57,1127.86a5.67,5.67,0,1,0,0-11.34h0v11.34Z" transform="translate(-57.37 -42.6)"/><path class="cls-1" d="M311.24,1071.8a5.67,5.67,0,0,0-5.67-5.67h0v11.34h0A5.67,5.67,0,0,0,311.24,1071.8Z" transform="translate(-57.37 -42.6)"/><path class="cls-1" d="M309.11,1135.68v-1.78a2.64,2.64,0,0,0-2.65-2.65h-.89v7.08h.89A2.65,2.65,0,0,0,309.11,1135.68Z" transform="translate(-57.37 -42.6)"/><path class="cls-1" d="M374.86,1046a5.67,5.67,0,0,0,5.67-5.67H369.19A5.67,5.67,0,0,0,374.86,1046Z" transform="translate(-57.37 -42.6)"/><path class="cls-1" d="M413.29,1084.4a5.66,5.66,0,0,0,5.67,5.66v-11.33A5.67,5.67,0,0,0,413.29,1084.4Z" transform="translate(-57.37 -42.6)"/><path class="cls-1" d="M415.77,1133.46l1.33,1.33-1.33,1.33a1.42,1.42,0,1,0,2,2L419,1137v-4.34l-1.17-1.17a1.42,1.42,0,1,0-2,2Z" transform="translate(-57.37 -42.6)"/><path class="cls-1" d="M384.12,1150.35a1.43,1.43,0,0,0,0,2l1.33,1.33h4l1.32-1.33a1.42,1.42,0,0,0-2-2l-1.33,1.32-1.33-1.32A1.41,1.41,0,0,0,384.12,1150.35Z" transform="translate(-57.37 -42.6)"/><rect class="cls-1" x="277.04" y="1089.53" width="5.31" height="5.31" rx="2.65"/><rect class="cls-1" x="263.55" y="1063.44" width="7.09" height="7.09" rx="2.65"/><rect class="cls-1" x="263.55" y="1038.25" width="7.09" height="7.09" rx="2.65"/><circle class="cls-1" cx="260.8" cy="1098.48" r="2.66"/><rect class="cls-1" x="274.97" y="1037.07" width="9.45" height="9.45" rx="2.65"/><rect class="cls-1" x="264.44" y="1026.53" width="5.31" height="5.31" rx="2.65"/><rect class="cls-1" x="274.97" y="1024.47" width="9.45" height="9.45" rx="2.65"/><rect class="cls-1" x="276.15" y="1013.05" width="7.09" height="7.09" rx="2.65"/><rect class="cls-1" x="301.35" y="1088.64" width="7.09" height="7.09" rx="2.65"/><path class="cls-1" d="M357.54,1120.12v4.14a2.66,2.66,0,0,0,2.65,2.66h29.34a2.66,2.66,0,0,0,2.66-2.66v-4.14a2.65,2.65,0,0,0-2.66-2.65H360.19A2.65,2.65,0,0,0,357.54,1120.12Z" transform="translate(-57.37 -42.6)"/><rect class="cls-1" x="287.19" y="1049.29" width="10.2" height="10.2" rx="5.1"/><rect class="cls-1" x="287.19" y="1036.69" width="10.2" height="10.2" rx="5.1"/><path class="cls-1" d="M380,1109.59a5.1,5.1,0,1,0-5.1,5.1A5.1,5.1,0,0,0,380,1109.59Z" transform="translate(-57.37 -42.6)"/><path class="cls-1" d="M344.94,1050.83v23a2.66,2.66,0,0,0,2.66,2.65h29.33a2.66,2.66,0,0,0,2.66-2.65v-4.14a2.66,2.66,0,0,0-2.66-2.66H357.05a2.66,2.66,0,0,1-2.66-2.65v-13.59a2.65,2.65,0,0,0-2.65-2.65H347.6A2.65,2.65,0,0,0,344.94,1050.83Z" transform="translate(-57.37 -42.6)"/><rect class="cls-1" x="325.84" y="1050.14" width="8.5" height="8.5" rx="2.39"/><circle class="cls-1" cx="348.99" cy="1066.99" r="5.67"/><rect class="cls-1" x="325.84" y="1037.54" width="8.5" height="8.5" rx="2.39"/><rect class="cls-1" x="313.95" y="1013.05" width="7.09" height="7.09" rx="2.65"/><rect class="cls-1" x="327.43" y="1013.94" width="5.31" height="5.31" rx="2.65"/><rect class="cls-1" x="340.03" y="1089.53" width="5.31" height="5.31" rx="2.65"/><rect class="cls-1" x="339.14" y="1025.65" width="7.09" height="7.09" rx="2.65"/><path class="cls-1" d="M384.12,1068.46a1.43,1.43,0,0,0,0,2l1.33,1.33-1.33,1.32a1.42,1.42,0,1,0,2,2l1.33-1.33,1.33,1.33a1.42,1.42,0,1,0,2-2l-1.32-1.32,1.32-1.33a1.42,1.42,0,0,0-2-2l-1.33,1.32-1.33-1.32A1.41,1.41,0,0,0,384.12,1068.46Z" transform="translate(-57.37 -42.6)"/><path class="cls-1" d="M384.12,1106.25a1.44,1.44,0,0,0,0,2l1.33,1.32-1.33,1.33a1.43,1.43,0,0,0,0,2,1.41,1.41,0,0,0,2,0l1.33-1.32,1.33,1.32a1.42,1.42,0,1,0,2-2l-1.32-1.33,1.32-1.32a1.42,1.42,0,0,0-2-2l-1.33,1.33-1.33-1.33A1.43,1.43,0,0,0,384.12,1106.25Z" transform="translate(-57.37 -42.6)"/><path class="cls-1" d="M315.21,1062.54a1.43,1.43,0,0,0,0-2l-1.33-1.33,1.33-1.33a1.43,1.43,0,0,0,0-2,1.41,1.41,0,0,0-2,0l-1.33,1.32-1.33-1.32a1.41,1.41,0,0,0-2,0,1.43,1.43,0,0,0,0,2l1.33,1.33-1.33,1.33a1.42,1.42,0,0,0,2,2l1.33-1.33,1.33,1.33A1.43,1.43,0,0,0,315.21,1062.54Z" transform="translate(-57.37 -42.6)"/><path class="cls-1" d="M353,1112.93a1.43,1.43,0,0,0,0-2l-1.33-1.33,1.33-1.32a1.43,1.43,0,0,0-2-2l-1.32,1.33-1.33-1.33a1.42,1.42,0,0,0-2,2l1.32,1.32-1.32,1.33a1.42,1.42,0,1,0,2,2l1.33-1.32,1.32,1.32A1.42,1.42,0,0,0,353,1112.93Z" transform="translate(-57.37 -42.6)"/><path class="cls-1" d="M327.81,1125.53a1.43,1.43,0,0,0,0-2l-1.33-1.33,1.33-1.33a1.42,1.42,0,0,0-2-2l-1.33,1.33-1.33-1.33a1.43,1.43,0,0,0-2,0,1.41,1.41,0,0,0,0,2l1.32,1.33-1.32,1.33a1.42,1.42,0,1,0,2,2l1.33-1.32,1.33,1.32A1.41,1.41,0,0,0,327.81,1125.53Z" transform="translate(-57.37 -42.6)"/><rect class="cls-1" x="247.49" y="124.69" width="238.76" height="238.76" rx="20.6"/><rect class="cls-1" x="371.6" y="623.46" width="238.76" height="238.76" rx="20.6"/><path class="cls-1" d="M250.07,170.13h1.78a2.65,2.65,0,0,0,2.65-2.65v-.89h-7.09v.89A2.66,2.66,0,0,0,250.07,170.13Z" transform="translate(-57.37 -42.6)"/><path class="cls-1" d="M295.05,182.83a2.66,2.66,0,0,0-2.66,2.65h0a2.66,2.66,0,0,0,2.66,2.65h0v-5.31Z" transform="translate(-57.37 -42.6)"/><path class="cls-1" d="M181.67,217.61V229a5.67,5.67,0,1,0,0-11.34Z" transform="translate(-57.37 -42.6)"/><path class="cls-1" d="M207.49,166.59a5.67,5.67,0,1,0,11.34,0H207.49Z" transform="translate(-57.37 -42.6)"/><path class="cls-1" d="M263.56,172.26a5.67,5.67,0,0,0,5.67-5.67H257.89A5.67,5.67,0,0,0,263.56,172.26Z" transform="translate(-57.37 -42.6)"/><path class="cls-1" d="M199.67,170.13h1.78a2.66,2.66,0,0,0,2.66-2.65v-.89H197v.89A2.65,2.65,0,0,0,199.67,170.13Z" transform="translate(-57.37 -42.6)"/><path class="cls-1" d="M289.38,235.88a5.67,5.67,0,0,0,5.67,5.67V230.21A5.67,5.67,0,0,0,289.38,235.88Z" transform="translate(-57.37 -42.6)"/><path class="cls-1" d="M251,274.3a5.67,5.67,0,0,0-5.67,5.67h11.34A5.67,5.67,0,0,0,251,274.3Z" transform="translate(-57.37 -42.6)"/><path class="cls-1" d="M201.89,276.79l-1.33,1.32-1.32-1.32a1.42,1.42,0,0,0-2,2l1.17,1.17h4.34l1.17-1.17a1.42,1.42,0,0,0-2-2Z" transform="translate(-57.37 -42.6)"/><path class="cls-1" d="M185,245.14a1.42,1.42,0,0,0-2,0l-1.32,1.32v4l1.32,1.33a1.43,1.43,0,0,0,2-2l-1.33-1.32,1.33-1.33A1.43,1.43,0,0,0,185,245.14Z" transform="translate(-57.37 -42.6)"/><rect class="cls-1" x="140.53" y="152.82" width="5.31" height="5.31" rx="2.65"/><rect class="cls-1" x="164.84" y="139.34" width="7.09" height="7.09" rx="2.65"/><rect class="cls-1" x="190.04" y="139.34" width="7.09" height="7.09" rx="2.65"/><circle class="cls-1" cx="136.89" cy="136.58" r="2.66"/><rect class="cls-1" x="188.86" y="150.75" width="9.45" height="9.45" rx="2.65"/><rect class="cls-1" x="203.53" y="140.22" width="5.31" height="5.31" rx="2.65"/><rect class="cls-1" x="201.46" y="150.75" width="9.45" height="9.45" rx="2.65"/><rect class="cls-1" x="215.24" y="151.94" width="7.09" height="7.09" rx="2.65"/><rect class="cls-1" x="139.65" y="177.13" width="7.09" height="7.09" rx="2.65"/><path class="cls-1" d="M215.23,218.56h-4.14a2.65,2.65,0,0,0-2.65,2.65v29.34a2.65,2.65,0,0,0,2.65,2.65h4.14a2.66,2.66,0,0,0,2.66-2.65V221.21A2.65,2.65,0,0,0,215.23,218.56Z" transform="translate(-57.37 -42.6)"/><rect class="cls-1" x="175.88" y="162.97" width="10.2" height="10.2" rx="5.1"/><rect class="cls-1" x="188.48" y="162.97" width="10.2" height="10.2" rx="5.1"/><path class="cls-1" d="M225.76,241a5.1,5.1,0,1,0-5.1-5.1A5.1,5.1,0,0,0,225.76,241Z" transform="translate(-57.37 -42.6)"/><path class="cls-1" d="M284.52,206h-23a2.66,2.66,0,0,0-2.66,2.65V238a2.66,2.66,0,0,0,2.66,2.65h4.14a2.65,2.65,0,0,0,2.65-2.65V218.06a2.65,2.65,0,0,1,2.66-2.65h13.58a2.66,2.66,0,0,0,2.66-2.66v-4.14A2.66,2.66,0,0,0,284.52,206Z" transform="translate(-57.37 -42.6)"/><rect class="cls-1" x="176.73" y="201.62" width="8.5" height="8.5" rx="2.39"/><circle class="cls-1" cx="168.39" cy="224.77" r="5.67"/><rect class="cls-1" x="189.33" y="201.62" width="8.5" height="8.5" rx="2.39"/><rect class="cls-1" x="215.24" y="189.73" width="7.09" height="7.09" rx="2.65"/><rect class="cls-1" x="216.12" y="203.21" width="5.31" height="5.31" rx="2.65"/><rect class="cls-1" x="140.53" y="215.81" width="5.31" height="5.31" rx="2.65"/><rect class="cls-1" x="202.64" y="214.93" width="7.09" height="7.09" rx="2.65"/><path class="cls-1" d="M266.9,245.14a1.42,1.42,0,0,0-2,0l-1.32,1.32-1.33-1.32a1.42,1.42,0,0,0-2,2l1.33,1.33-1.33,1.32a1.43,1.43,0,0,0,2,2l1.33-1.33,1.32,1.33a1.43,1.43,0,0,0,2-2l-1.33-1.32,1.33-1.33A1.43,1.43,0,0,0,266.9,245.14Z" transform="translate(-57.37 -42.6)"/><path class="cls-1" d="M229.1,245.14a1.41,1.41,0,0,0-2,0l-1.33,1.32-1.33-1.32a1.41,1.41,0,0,0-2,0,1.43,1.43,0,0,0,0,2l1.33,1.33-1.33,1.32a1.42,1.42,0,0,0,2,2l1.33-1.33,1.33,1.33a1.42,1.42,0,0,0,2-2l-1.33-1.32,1.33-1.33A1.43,1.43,0,0,0,229.1,245.14Z" transform="translate(-57.37 -42.6)"/><path class="cls-1" d="M272.81,176.23a1.44,1.44,0,0,0,2,0l1.32-1.33,1.33,1.33a1.42,1.42,0,0,0,2-2l-1.32-1.32,1.32-1.33a1.42,1.42,0,0,0-2-2l-1.33,1.32-1.32-1.32a1.42,1.42,0,0,0-2,2l1.33,1.33-1.33,1.32A1.44,1.44,0,0,0,272.81,176.23Z" transform="translate(-57.37 -42.6)"/><path class="cls-1" d="M222.42,214a1.41,1.41,0,0,0,2,0l1.33-1.32,1.33,1.32a1.41,1.41,0,0,0,2,0,1.43,1.43,0,0,0,0-2l-1.33-1.33,1.33-1.33a1.42,1.42,0,0,0-2-2l-1.33,1.33-1.33-1.33a1.42,1.42,0,0,0-2,2l1.33,1.33L222.42,212A1.43,1.43,0,0,0,222.42,214Z" transform="translate(-57.37 -42.6)"/><path class="cls-1" d="M209.82,188.83a1.44,1.44,0,0,0,2,0l1.32-1.33,1.33,1.33a1.42,1.42,0,0,0,2-2l-1.32-1.33,1.32-1.32a1.42,1.42,0,1,0-2-2l-1.33,1.33-1.32-1.33a1.43,1.43,0,1,0-2,2l1.33,1.32-1.33,1.33A1.44,1.44,0,0,0,209.82,188.83Z" transform="translate(-57.37 -42.6)"/><path class="cls-1" d="M727.9,385.21a3.77,3.77,0,1,0-3.77-3.77,3.77,3.77,0,0,0,3.77,3.77" transform="translate(-57.37 -42.6)"/><path class="cls-1" d="M740.48,372.63a3.77,3.77,0,1,0-3.77-3.77,3.77,3.77,0,0,0,3.77,3.77" transform="translate(-57.37 -42.6)"/><path class="cls-1" d="M724.13,356.28a3.77,3.77,0,1,0,3.77-3.77,3.77,3.77,0,0,0-3.77,3.77" transform="translate(-57.37 -42.6)"/><path class="cls-1" d="M711.54,356.28a3.78,3.78,0,1,0,3.78-3.77,3.77,3.77,0,0,0-3.78,3.77" transform="translate(-57.37 -42.6)"/><path class="cls-1" d="M782,343.7a3.78,3.78,0,1,0-3.78,3.77A3.78,3.78,0,0,0,782,343.7" transform="translate(-57.37 -42.6)"/><path class="cls-1" d="M790.8,322.31v-7.55a3.78,3.78,0,0,0,0,7.55" transform="translate(-57.37 -42.6)"/><path class="cls-1" d="M699,343.7a3.78,3.78,0,1,0,3.78-3.78A3.77,3.77,0,0,0,699,343.7" transform="translate(-57.37 -42.6)"/><path class="cls-1" d="M681.34,331.11a3.76,3.76,0,0,0-3.77-3.77v7.55a3.77,3.77,0,0,0,3.77-3.78" transform="translate(-57.37 -42.6)"/><path class="cls-1" d="M686.38,343.7a3.78,3.78,0,1,0,3.77-3.78,3.77,3.77,0,0,0-3.77,3.78" transform="translate(-57.37 -42.6)"/><path class="cls-1" d="M741.1,406.6a49.76,49.76,0,0,1,49.7-49.7v-1.24a51,51,0,0,0-50.95,50.95Z" transform="translate(-57.37 -42.6)"/><path class="cls-1" d="M747.39,406.61a43.47,43.47,0,0,1,43.41-43.38V362a44.7,44.7,0,0,0-44.65,44.6Z" transform="translate(-57.37 -42.6)"/><path class="cls-1" d="M753.68,406.6a37.17,37.17,0,0,1,37.12-37.07v-1.24a38.41,38.41,0,0,0-38.36,38.32Z" transform="translate(-57.37 -42.6)"/><path class="cls-1" d="M760,406.6a30.86,30.86,0,0,1,30.83-30.77h0v-1.23h0a32.1,32.1,0,0,0-32.06,32Z" transform="translate(-57.37 -42.6)"/><path class="cls-1" d="M766.27,406.6a24.55,24.55,0,0,1,24.52-24.52h0v-1.24h0A25.79,25.79,0,0,0,765,406.6Z" transform="translate(-57.37 -42.6)"/><path class="cls-1" d="M772.58,406.61a18.23,18.23,0,0,1,18.21-18.22h0v-1.24h0a19.48,19.48,0,0,0-19.45,19.45Z" transform="translate(-57.37 -42.6)"/><path class="cls-1" d="M778.87,406.6a11.94,11.94,0,0,1,11.92-11.92h0v-1.24h0a13.18,13.18,0,0,0-13.16,13.16Z" transform="translate(-57.37 -42.6)"/><path class="cls-1" d="M783.89,294.39a49.71,49.71,0,0,1-99.39,0,12.75,12.75,0,0,0-1.22.63,50.94,50.94,0,0,0,101.83,0,9.38,9.38,0,0,0-1.22-.63" transform="translate(-57.37 -42.6)"/><path class="cls-1" d="M689.54,293.37v.05a44.66,44.66,0,0,0,89.31,0v-.05h-1.24v.05a43.42,43.42,0,1,1-86.83,0v-.05Z" transform="translate(-57.37 -42.6)"/><path class="cls-1" d="M695.84,293.37v.05a38.36,38.36,0,1,0,76.71,0v-.05h-1.23s0,0,0,.05a37.13,37.13,0,0,1-74.25,0v-.05Z" transform="translate(-57.37 -42.6)"/><path class="cls-1" d="M702.13,293.37v.05a32.06,32.06,0,1,0,64.12,0v-.05H765a.09.09,0,0,0,0,.05,30.83,30.83,0,0,1-61.66,0v-.05Z" transform="translate(-57.37 -42.6)"/><path class="cls-1" d="M708.42,293.37h0a25.76,25.76,0,1,0,51.52,0h-1.23a24.53,24.53,0,0,1-49.06,0Z" transform="translate(-57.37 -42.6)"/><path class="cls-1" d="M714.73,293.37h0a19.45,19.45,0,0,0,38.9,0H752.4a18.22,18.22,0,1,1-36.43,0Z" transform="translate(-57.37 -42.6)"/><path class="cls-1" d="M722.25,293.37H721a13.16,13.16,0,0,0,26.32,0h-1.23a11.93,11.93,0,0,1-23.86,0" transform="translate(-57.37 -42.6)"/><path class="cls-1" d="M728.52,406.6v0a51,51,0,0,0-50.94-50.95h0v1.24h0a49.75,49.75,0,0,1,49.7,49.71s0,0,0,0Z" transform="translate(-57.37 -42.6)"/><path class="cls-1" d="M722.23,406.6A44.7,44.7,0,0,0,677.58,362h0v1.24h0A43.46,43.46,0,0,1,721,406.61Z" transform="translate(-57.37 -42.6)"/><path class="cls-1" d="M715.94,406.6a38.4,38.4,0,0,0-38.36-38.35h0v1.23h0A37.17,37.17,0,0,1,714.7,406.6Z" transform="translate(-57.37 -42.6)"/><path class="cls-1" d="M709.63,406.6a32.1,32.1,0,0,0-32.06-32.06v1.24A30.86,30.86,0,0,1,708.4,406.6Z" transform="translate(-57.37 -42.6)"/><path class="cls-1" d="M703.32,406.6s0,0,0,0a25.78,25.78,0,0,0-25.75-25.76V382a24.56,24.56,0,0,1,24.52,24.53v0Z" transform="translate(-57.37 -42.6)"/><path class="cls-1" d="M697,406.6s0,0,0,0a19.47,19.47,0,0,0-19.45-19.45v1.23a18.25,18.25,0,0,1,18.21,18.22v0Z" transform="translate(-57.37 -42.6)"/><path class="cls-1" d="M690.72,406.61s0,0,0-.05a13.16,13.16,0,0,0-13.15-13.16v1.23a12,12,0,0,1,11.92,11.93v0Z" transform="translate(-57.37 -42.6)"/><path class="cls-1" d="M578.78,273.62v.21h0a6.29,6.29,0,0,0,12.58,0h0v-25.2a6.3,6.3,0,1,0-12.6,0v25Z" transform="translate(-57.37 -42.6)"/><circle class="cls-1" cx="585.08" cy="223.44" r="6.3" transform="translate(-85.61 54) rotate(-9.22)"/><path class="cls-1" d="M578.78,198.24a6.3,6.3,0,1,0,12.6,0V173a6.3,6.3,0,1,0-12.6,0v25.2Z" transform="translate(-57.37 -42.6)"/><path class="cls-1" d="M604,273.83a6.3,6.3,0,0,0,12.6,0s0,0,0-.05V248.69s0,0,0-.06a.43.43,0,0,1,0,0V223.49s0,0,0-.05a6.3,6.3,0,0,0-12.6,0v50.39Z" transform="translate(-57.37 -42.6)"/><path class="cls-1" d="M610.28,203a4.72,4.72,0,1,0-4.73-4.72A4.72,4.72,0,0,0,610.28,203Z" transform="translate(-57.37 -42.6)"/><path class="cls-1" d="M610.28,176.59a3.55,3.55,0,1,0-3.55-3.55A3.55,3.55,0,0,0,610.28,176.59Z" transform="translate(-57.37 -42.6)"/><path class="cls-1" d="M635.47,176.59a3.55,3.55,0,1,0-3.54-3.55A3.55,3.55,0,0,0,635.47,176.59Z" transform="translate(-57.37 -42.6)"/><path class="cls-1" d="M559.88,177.77a4.73,4.73,0,1,0-4.72-4.73A4.73,4.73,0,0,0,559.88,177.77Z" transform="translate(-57.37 -42.6)"/><circle class="cls-1" cx="635.47" cy="273.83" r="6.3" transform="translate(81.93 713.54) rotate(-67.5)"/><circle class="cls-1" cx="635.47" cy="248.63" r="4.72" transform="translate(-88.99 62.4) rotate(-9.22)"/><circle class="cls-1" cx="578.1" cy="180.83" r="3.54"/><path class="cls-1" d="M635.47,201.78a3.54,3.54,0,1,0-3.54-3.54A3.54,3.54,0,0,0,635.47,201.78Z" transform="translate(-57.37 -42.6)"/><circle class="cls-1" cx="660.67" cy="223.44" r="6.3" transform="translate(-84.63 66.11) rotate(-9.22)"/><circle class="cls-1" cx="502.51" cy="149.33" r="6.3"/><path class="cls-1" d="M654.37,273.83a6.3,6.3,0,0,0,12.6,0v-25.2a6.3,6.3,0,0,0-12.6,0v25.2Z" transform="translate(-57.37 -42.6)"/><path class="cls-1" d="M660.67,203a4.73,4.73,0,1,0-4.72-4.73A4.72,4.72,0,0,0,660.67,203Z" transform="translate(-57.37 -42.6)"/><path class="cls-1" d="M660.67,176.58a3.55,3.55,0,1,0-3.54-3.55A3.54,3.54,0,0,0,660.67,176.58Z" transform="translate(-57.37 -42.6)"/><path class="cls-1" d="M553.59,273.83a6.29,6.29,0,0,0,12.58,0h0v-63a6.3,6.3,0,1,0-12.6,0h0v63Z" transform="translate(-57.37 -42.6)"/><rect class="cls-1" x="248.14" y="749.52" width="113.24" height="113.24" rx="20.24"/><rect class="cls-1" x="620.2" y="749.52" width="113.24" height="113.24" rx="20.24"/><path class="cls-1" d="M699,966.73a3.77,3.77,0,1,0,3.77-3.78,3.77,3.77,0,0,0-3.77,3.78" transform="translate(-57.37 -42.6)"/><path class="cls-1" d="M711.55,979.31a3.77,3.77,0,1,0,3.77-3.78,3.77,3.77,0,0,0-3.77,3.78" transform="translate(-57.37 -42.6)"/><path class="cls-1" d="M727.9,963a3.78,3.78,0,1,0,3.77,3.78A3.77,3.77,0,0,0,727.9,963" transform="translate(-57.37 -42.6)"/><path class="cls-1" d="M727.9,950.37a3.78,3.78,0,1,0,3.77,3.77,3.77,3.77,0,0,0-3.77-3.77" transform="translate(-57.37 -42.6)"/><path class="cls-1" d="M740.48,1020.83a3.78,3.78,0,1,0-3.77-3.78,3.78,3.78,0,0,0,3.77,3.78" transform="translate(-57.37 -42.6)"/><path class="cls-1" d="M761.87,1029.63h7.55a3.78,3.78,0,0,0-7.55,0" transform="translate(-57.37 -42.6)"/><path class="cls-1" d="M740.48,937.79a3.78,3.78,0,1,0,3.78,3.78,3.77,3.77,0,0,0-3.78-3.78" transform="translate(-57.37 -42.6)"/><path class="cls-1" d="M753.07,920.17a3.77,3.77,0,0,0,3.77-3.77h-7.55a3.77,3.77,0,0,0,3.78,3.77" transform="translate(-57.37 -42.6)"/><path class="cls-1" d="M740.48,925.21a3.78,3.78,0,1,0,3.78,3.77,3.77,3.77,0,0,0-3.78-3.77" transform="translate(-57.37 -42.6)"/><path class="cls-1" d="M677.58,979.93a49.76,49.76,0,0,1,49.7,49.7h1.24a51,51,0,0,0-50.95-51Z" transform="translate(-57.37 -42.6)"/><path class="cls-1" d="M677.57,986.22A43.46,43.46,0,0,1,721,1029.63h1.23A44.7,44.7,0,0,0,677.58,985Z" transform="translate(-57.37 -42.6)"/><path class="cls-1" d="M677.58,992.51a37.17,37.17,0,0,1,37.07,37.12h1.24a38.4,38.4,0,0,0-38.32-38.36Z" transform="translate(-57.37 -42.6)"/><path class="cls-1" d="M677.58,998.8a30.86,30.86,0,0,1,30.77,30.83h1.24a32.08,32.08,0,0,0-32-32.06Z" transform="translate(-57.37 -42.6)"/><path class="cls-1" d="M677.58,1005.1a24.55,24.55,0,0,1,24.52,24.52h1.24a25.79,25.79,0,0,0-25.76-25.76Z" transform="translate(-57.37 -42.6)"/><path class="cls-1" d="M677.57,1011.4a18.24,18.24,0,0,1,18.22,18.22v0H697a19.47,19.47,0,0,0-19.45-19.45Z" transform="translate(-57.37 -42.6)"/><path class="cls-1" d="M677.58,1017.7a11.94,11.94,0,0,1,11.92,11.92h1.24v0a13.18,13.18,0,0,0-13.16-13.16Z" transform="translate(-57.37 -42.6)"/><path class="cls-1" d="M789.79,1022.72a49.71,49.71,0,0,1,0-99.39,12.75,12.75,0,0,0-.63-1.22,50.94,50.94,0,0,0,0,101.83,10.07,10.07,0,0,0,.63-1.22" transform="translate(-57.37 -42.6)"/><path class="cls-1" d="M790.81,928.37h0a44.65,44.65,0,0,0,0,89.3h0v-1.24h0a43.42,43.42,0,0,1,0-86.84h0Z" transform="translate(-57.37 -42.6)"/><path class="cls-1" d="M790.81,934.67h0a38.36,38.36,0,0,0,0,76.72h0v-1.24h0a37.12,37.12,0,0,1,0-74.24h0Z" transform="translate(-57.37 -42.6)"/><path class="cls-1" d="M790.81,941h0a32.06,32.06,0,1,0,0,64.12h0v-1.24h0a30.83,30.83,0,0,1,0-61.65h0Z" transform="translate(-57.37 -42.6)"/><path class="cls-1" d="M790.81,947.25h0a25.76,25.76,0,0,0,0,51.52v-1.23a24.53,24.53,0,0,1,0-49.06Z" transform="translate(-57.37 -42.6)"/><path class="cls-1" d="M790.81,953.56h0a19.45,19.45,0,1,0,0,38.9v-1.24a18.22,18.22,0,0,1,0-36.43Z" transform="translate(-57.37 -42.6)"/><path class="cls-1" d="M790.81,961.08h0v-1.23a13.16,13.16,0,0,0,0,26.32v-1.24a11.93,11.93,0,1,1,0-23.85" transform="translate(-57.37 -42.6)"/><path class="cls-1" d="M677.58,967.35h0a51,51,0,0,0,51-50.94h-1.24a49.77,49.77,0,0,1-49.71,49.71h0Z" transform="translate(-57.37 -42.6)"/><path class="cls-1" d="M677.58,961.06a44.7,44.7,0,0,0,44.65-44.66H721a43.47,43.47,0,0,1-43.42,43.42Z" transform="translate(-57.37 -42.6)"/><path class="cls-1" d="M677.58,954.76a38.4,38.4,0,0,0,38.36-38.35H714.7a37.16,37.16,0,0,1-37.12,37.12Z" transform="translate(-57.37 -42.6)"/><path class="cls-1" d="M677.58,948.46a32.09,32.09,0,0,0,32.06-32.06H708.4a30.86,30.86,0,0,1-30.82,30.83Z" transform="translate(-57.37 -42.6)"/><path class="cls-1" d="M677.58,942.15h0a25.79,25.79,0,0,0,25.77-25.75h-1.24a24.56,24.56,0,0,1-24.53,24.52h0Z" transform="translate(-57.37 -42.6)"/><path class="cls-1" d="M677.58,935.84h0a19.46,19.46,0,0,0,19.45-19.44h-1.23a18.25,18.25,0,0,1-18.22,18.21h0Z" transform="translate(-57.37 -42.6)"/><path class="cls-1" d="M677.57,929.55h0a13.18,13.18,0,0,0,13.17-13.15h-1.24a11.94,11.94,0,0,1-11.93,11.92h0Z" transform="translate(-57.37 -42.6)"/><circle class="cls-1" cx="771.99" cy="1059.59" r="3.78" transform="translate(-280.16 163.11) rotate(-13.28)"/><circle class="cls-1" cx="714.61" cy="1042.18" r="3.78"/><circle class="cls-1" cx="714.61" cy="1067.38" r="3.78"/><circle class="cls-1" cx="714.61" cy="1092.57" r="3.78"/><path class="cls-1" d="M753.09,1047a6.3,6.3,0,1,0,6.3-6.3A6.3,6.3,0,0,0,753.09,1047Zm10.08,0a3.78,3.78,0,1,1-3.78-3.78A3.78,3.78,0,0,1,763.17,1047Z" transform="translate(-57.37 -42.6)"/><path class="cls-1" d="M753.09,1072.19a6.3,6.3,0,1,0,6.3-6.3A6.3,6.3,0,0,0,753.09,1072.19Zm10.08,0a3.78,3.78,0,1,1-3.78-3.78A3.78,3.78,0,0,1,763.17,1072.19Z" transform="translate(-57.37 -42.6)"/><path class="cls-1" d="M753.09,1097.38a6.3,6.3,0,1,0,6.3-6.3A6.3,6.3,0,0,0,753.09,1097.38Zm10.08,0a3.78,3.78,0,1,1-3.78-3.78A3.78,3.78,0,0,1,763.17,1097.38Z" transform="translate(-57.37 -42.6)"/><path class="cls-1" d="M753.09,1122.58a6.3,6.3,0,1,0,6.3-6.3A6.3,6.3,0,0,0,753.09,1122.58Zm10.08,0a3.78,3.78,0,1,1-3.78-3.78A3.78,3.78,0,0,1,763.17,1122.58Z" transform="translate(-57.37 -42.6)"/><path class="cls-1" d="M765.69,1147.78a6.3,6.3,0,1,0-6.3,6.3A6.3,6.3,0,0,0,765.69,1147.78Zm-10.08,0a3.78,3.78,0,1,1,3.78,3.78A3.78,3.78,0,0,1,755.61,1147.78Z" transform="translate(-57.37 -42.6)"/><path class="cls-1" d="M740.49,1059.59a6.3,6.3,0,1,0,6.3-6.3A6.3,6.3,0,0,0,740.49,1059.59Zm10.08,0a3.78,3.78,0,1,1-3.78-3.78A3.78,3.78,0,0,1,750.57,1059.59Z" transform="translate(-57.37 -42.6)"/><path class="cls-1" d="M740.49,1084.78a6.3,6.3,0,1,0,6.3-6.29A6.3,6.3,0,0,0,740.49,1084.78Zm10.08,0a3.78,3.78,0,1,1-3.78-3.77A3.78,3.78,0,0,1,750.57,1084.78Z" transform="translate(-57.37 -42.6)"/><path class="cls-1" d="M740.49,1110a6.3,6.3,0,1,0,6.3-6.3A6.3,6.3,0,0,0,740.49,1110Zm10.08,0a3.78,3.78,0,1,1-3.78-3.78A3.78,3.78,0,0,1,750.57,1110Z" transform="translate(-57.37 -42.6)"/><path class="cls-1" d="M753.09,1135.18a6.3,6.3,0,1,0-6.3,6.3A6.3,6.3,0,0,0,753.09,1135.18Zm-10.08,0a3.78,3.78,0,1,1,3.78,3.78A3.78,3.78,0,0,1,743,1135.18Z" transform="translate(-57.37 -42.6)"/><circle class="cls-1" cx="664.22" cy="1016.98" r="3.78"/><circle class="cls-1" cx="721.59" cy="1084.78" r="3.78" transform="translate(-287.3 152.2) rotate(-13.28)"/><circle class="cls-1" cx="721.59" cy="1109.98" r="3.78" transform="translate(-293.09 152.88) rotate(-13.28)"/><circle class="cls-1" cx="721.59" cy="1135.18" r="3.78" transform="translate(-298.88 153.55) rotate(-13.28)"/><path class="cls-1" d="M702.7,1047a6.3,6.3,0,1,0,6.3-6.3A6.3,6.3,0,0,0,702.7,1047Zm10.08,0a3.78,3.78,0,1,1-3.78-3.78A3.78,3.78,0,0,1,712.78,1047Z" transform="translate(-57.37 -42.6)"/><path class="cls-1" d="M715.29,1072.19a6.3,6.3,0,1,0-6.29,6.3A6.3,6.3,0,0,0,715.29,1072.19Zm-10.07,0A3.78,3.78,0,1,1,709,1076,3.78,3.78,0,0,1,705.22,1072.19Z" transform="translate(-57.37 -42.6)"/><path class="cls-1" d="M715.29,1097.38a6.3,6.3,0,1,0-6.29,6.3A6.3,6.3,0,0,0,715.29,1097.38Zm-10.07,0a3.78,3.78,0,1,1,3.78,3.78A3.78,3.78,0,0,1,705.22,1097.38Z" transform="translate(-57.37 -42.6)"/><path class="cls-1" d="M715.29,1122.58a6.3,6.3,0,1,0-6.29,6.3A6.3,6.3,0,0,0,715.29,1122.58Zm-10.07,0a3.78,3.78,0,1,1,3.78,3.78A3.78,3.78,0,0,1,705.22,1122.58Z" transform="translate(-57.37 -42.6)"/><path class="cls-1" d="M715.29,1147.78a6.3,6.3,0,1,0-6.29,6.3A6.3,6.3,0,0,0,715.29,1147.78Zm-10.07,0a3.78,3.78,0,1,1,3.78,3.78A3.78,3.78,0,0,1,705.22,1147.78Z" transform="translate(-57.37 -42.6)"/><path class="cls-1" d="M702.7,1059.59a6.3,6.3,0,1,0-6.3,6.3A6.3,6.3,0,0,0,702.7,1059.59Zm-10.08,0a3.78,3.78,0,1,1,3.78,3.78A3.78,3.78,0,0,1,692.62,1059.59Z" transform="translate(-57.37 -42.6)"/><path class="cls-1" d="M702.7,1084.78a6.3,6.3,0,1,0-6.3,6.3A6.3,6.3,0,0,0,702.7,1084.78Zm-10.08,0a3.78,3.78,0,1,1,3.78,3.78A3.77,3.77,0,0,1,692.62,1084.78Z" transform="translate(-57.37 -42.6)"/><path class="cls-1" d="M702.7,1110a6.3,6.3,0,1,0-6.3,6.3A6.3,6.3,0,0,0,702.7,1110Zm-10.08,0a3.78,3.78,0,1,1,3.78,3.78A3.78,3.78,0,0,1,692.62,1110Z" transform="translate(-57.37 -42.6)"/><path class="cls-1" d="M702.7,1135.18a6.3,6.3,0,1,0-6.3,6.3A6.3,6.3,0,0,0,702.7,1135.18Zm-10.08,0a3.78,3.78,0,1,1,3.78,3.78A3.78,3.78,0,0,1,692.62,1135.18Z" transform="translate(-57.37 -42.6)"/><circle class="cls-1" cx="676.82" cy="1004.38" r="6.3"/><circle class="cls-1" cx="676.82" cy="1029.58" r="6.3"/><circle class="cls-1" cx="734.19" cy="1097.38" r="6.3" transform="translate(-289.86 155.43) rotate(-13.28)"/><circle class="cls-1" cx="734.19" cy="1122.58" r="6.3" transform="translate(-295.65 156.11) rotate(-13.28)"/><circle class="cls-1" cx="676.82" cy="1105.17" r="6.3"/><path class="cls-1" d="M778.29,1047a6.3,6.3,0,0,0,12.17,2.27,11.7,11.7,0,0,0-8.14-8.14A6.29,6.29,0,0,0,778.29,1047Z" transform="translate(-57.37 -42.6)"/><circle class="cls-1" cx="727.21" cy="1029.58" r="6.3"/><circle class="cls-1" cx="784.59" cy="1097.38" r="6.3" transform="translate(-288.51 167.01) rotate(-13.28)"/><circle class="cls-1" cx="784.59" cy="1122.58" r="6.3" transform="translate(-294.3 167.69) rotate(-13.28)"/><path class="cls-1" d="M784.59,1141.48a6.3,6.3,0,0,0-2.27,12.17,11.72,11.72,0,0,0,8.14-8.14A6.29,6.29,0,0,0,784.59,1141.48Z" transform="translate(-57.37 -42.6)"/><path class="cls-1" d="M683.8,1053.29a6.3,6.3,0,0,0,2.27-12.17,11.68,11.68,0,0,0-8.14,8.14A6.3,6.3,0,0,0,683.8,1053.29Z" transform="translate(-57.37 -42.6)"/><circle class="cls-1" cx="626.43" cy="1029.58" r="6.3"/><circle class="cls-1" cx="683.8" cy="1097.38" r="6.3" transform="translate(-291.21 143.86) rotate(-13.28)"/><circle class="cls-1" cx="683.8" cy="1122.58" r="6.3" transform="translate(-297 144.53) rotate(-13.28)"/><path class="cls-1" d="M690.1,1147.78a6.3,6.3,0,0,0-12.17-2.27,11.7,11.7,0,0,0,8.14,8.14A6.3,6.3,0,0,0,690.1,1147.78Z" transform="translate(-57.37 -42.6)"/><path class="cls-1" d="M412.44,1004.52h.22a6.29,6.29,0,0,0,0-12.58h-25.2a6.3,6.3,0,1,0,0,12.6h25Z" transform="translate(-57.37 -42.6)"/><circle class="cls-1" cx="362.26" cy="998.22" r="6.3" transform="translate(-212.59 28.31) rotate(-9.22)"/><path class="cls-1" d="M337.07,1004.52a6.3,6.3,0,0,0,0-12.6h-25.2a6.3,6.3,0,0,0,0,12.6h25.2Z" transform="translate(-57.37 -42.6)"/><path class="cls-1" d="M412.66,979.32a6.3,6.3,0,0,0,0-12.6h-50.4a6.3,6.3,0,0,0,0,12.6h50.4Z" transform="translate(-57.37 -42.6)"/><path class="cls-1" d="M341.79,973a4.73,4.73,0,1,0-4.72,4.73A4.72,4.72,0,0,0,341.79,973Z" transform="translate(-57.37 -42.6)"/><path class="cls-1" d="M315.41,973a3.54,3.54,0,1,0-3.54,3.55A3.54,3.54,0,0,0,315.41,973Z" transform="translate(-57.37 -42.6)"/><path class="cls-1" d="M315.41,947.83a3.54,3.54,0,1,0-3.54,3.54A3.54,3.54,0,0,0,315.41,947.83Z" transform="translate(-57.37 -42.6)"/><path class="cls-1" d="M316.59,1023.42a4.72,4.72,0,1,0-4.72,4.72A4.72,4.72,0,0,0,316.59,1023.42Z" transform="translate(-57.37 -42.6)"/><circle class="cls-1" cx="412.66" cy="947.83" r="6.3" transform="translate(-678.31 923.75) rotate(-67.5)"/><circle class="cls-1" cx="387.46" cy="947.83" r="4.72" transform="translate(-204.19 31.7) rotate(-9.22)"/><circle class="cls-1" cx="304.89" cy="905.22" r="3.54"/><path class="cls-1" d="M340.61,947.83a3.55,3.55,0,1,0-3.54,3.54A3.55,3.55,0,0,0,340.61,947.83Z" transform="translate(-57.37 -42.6)"/><circle class="cls-1" cx="362.26" cy="922.63" r="6.3" transform="translate(-200.48 27.34) rotate(-9.22)"/><circle class="cls-1" cx="273.39" cy="980.81" r="6.3"/><path class="cls-1" d="M412.66,928.93a6.3,6.3,0,0,0,0-12.6h-25.2a6.3,6.3,0,1,0,0,12.6h25.2Z" transform="translate(-57.37 -42.6)"/><path class="cls-1" d="M341.79,922.63a4.73,4.73,0,1,0-4.73,4.72A4.73,4.73,0,0,0,341.79,922.63Z" transform="translate(-57.37 -42.6)"/><path class="cls-1" d="M315.4,922.63a3.54,3.54,0,1,0-3.54,3.54A3.53,3.53,0,0,0,315.4,922.63Z" transform="translate(-57.37 -42.6)"/><path class="cls-1" d="M412.66,1029.7a6.29,6.29,0,0,0,0-12.57h-63a6.3,6.3,0,1,0,0,12.6h63Z" transform="translate(-57.37 -42.6)"/><rect class="cls-1" x="181.42" y="916.61" width="113.24" height="113.24" rx="20.24" transform="translate(1153.9 692.59) rotate(90)"/><rect class="cls-1" x="57.5" y="665.6" width="113.24" height="113.24" rx="20.24" transform="translate(778.97 565.49) rotate(90)"/><rect class="cls-1" x="181.42" y="541.27" width="113.24" height="113.24" rx="20.24" transform="translate(778.56 317.25) rotate(90)"/><rect class="cls-1" x="248.24" y="374.66" width="113.24" height="113.24" rx="20.24"/><rect class="cls-1" x="57.5" y="293.36" width="113.24" height="113.24" rx="20.24" transform="translate(406.74 193.26) rotate(90)"/><rect class="cls-1" x="57.5" y="1040.37" width="113.24" height="113.24" rx="20.24" transform="translate(1153.74 940.27) rotate(90)"/><rect class="cls-1" x="553.58" y="1040.37" width="113.24" height="113.24" rx="20.24" transform="translate(1649.83 444.18) rotate(90)"/><path class="cls-1" d="M57.37,129V144.4a11.7,11.7,0,0,0,11.71,11.7H84.43A64.44,64.44,0,0,1,57.37,129Z" transform="translate(-57.37 -42.6)"/><path class="cls-1" d="M57.48,99.41a56.7,56.7,0,0,0,56.7,56.69h.91a3.84,3.84,0,0,0-1-.14,56.6,56.6,0,1,1,56.59-56.6,3.76,3.76,0,0,0,.14,1c0-.3,0-.59,0-.89a56.7,56.7,0,1,0-113.39,0Z" transform="translate(-57.37 -42.6)"/><path class="cls-1" d="M114.13,42.76a56.6,56.6,0,1,0,0,113.19,3.84,3.84,0,0,1,1,.14h44.08a11.7,11.7,0,0,0,11.7-11.7V100.3a3.76,3.76,0,0,1-.14-1A56.65,56.65,0,0,0,114.13,42.76Zm36.22,20.37a51.27,51.27,0,0,1,0,72.45,3.71,3.71,0,0,1-5.25-5.25,43.85,43.85,0,0,0,0-62,3.71,3.71,0,1,1,5.25-5.25Zm2.36,36.22a38.62,38.62,0,0,1-38.58,38.58,3.72,3.72,0,1,1,0-7.43A31.15,31.15,0,1,0,83,99.35a3.72,3.72,0,1,1-7.43,0,38.58,38.58,0,0,1,77.16,0Zm-38,19.19a18.6,18.6,0,0,0,5.46-.82l.26-.08.22-.08a18.46,18.46,0,0,0,6.94-4.38l.21-.19.19-.21a18.46,18.46,0,0,0,4.38-6.94c0-.07.05-.15.08-.22s0-.18.08-.26a18.6,18.6,0,0,0,.82-5.46,3.94,3.94,0,0,1,.08-.77A18.59,18.59,0,0,0,128,86.43a3.72,3.72,0,0,1,5.26-5.26A26.35,26.35,0,0,1,96,118.44a3.72,3.72,0,0,1,5.26-5.26,18.52,18.52,0,0,0,12.7,5.44A3.94,3.94,0,0,1,114.75,118.54Zm-23-15.47a3.72,3.72,0,0,1-3.72-3.72,26.1,26.1,0,0,1,26.07-26.06,3.72,3.72,0,0,1,0,7.43A18.66,18.66,0,0,0,95.49,99.35,3.71,3.71,0,0,1,91.78,103.07ZM78.24,135.88c-.12-.1-.23-.19-.34-.3A51.28,51.28,0,0,1,67,119.45c-.07-.17-.14-.33-.2-.5l-.2-.47a50.92,50.92,0,0,1-3.7-19.13,3.15,3.15,0,0,1,0-.44,51.06,51.06,0,0,1,15-35.78,3.72,3.72,0,1,1,5.26,5.25,43.88,43.88,0,0,0-9.66,47.33l.16.39.18.43a43.86,43.86,0,0,0,40.29,26.62,3.75,3.75,0,0,1,2.63,1.09,3.73,3.73,0,0,1-2.63,6.35A51.06,51.06,0,0,1,78.24,135.88Z" transform="translate(-57.37 -42.6)"/><path class="cls-1" d="M84.44,42.6H69.08A11.71,11.71,0,0,0,57.37,54.31V69.67A64.49,64.49,0,0,1,84.44,42.6Z" transform="translate(-57.37 -42.6)"/><path class="cls-1" d="M159.4,54.08a63.79,63.79,0,0,1,11.47,15.57V54.31a11.71,11.71,0,0,0-11.7-11.71H143.82A64.14,64.14,0,0,1,159.4,54.08Z" transform="translate(-57.37 -42.6)"/><path class="cls-1" d="M560.39,649.8l-1.67-1.67A18.8,18.8,0,0,0,560.39,649.8Z" transform="translate(-57.37 -42.6)"/><path class="cls-1" d="M660.55,547.3l.66.66Z" transform="translate(-57.37 -42.6)"/><path class="cls-1" d="M666.83,561.93a20.18,20.18,0,0,0-5.62-14l-.66-.66a20.13,20.13,0,0,0-14-5.61H636.52L666.83,572Z" transform="translate(-57.37 -42.6)"/><polygon class="cls-1" points="609.45 547.82 560.72 499.08 542.3 499.08 609.45 566.24 609.45 547.82"/><path class="cls-1" d="M569.38,548.25l0,0,95.32,95.31a20.18,20.18,0,0,0,2.09-8.91v-7.41l-85.59-85.59h-7.42a20,20,0,0,0-8.91,2.09l4.43,4.43Z" transform="translate(-57.37 -42.6)"/><path class="cls-1" d="M646.59,654.93a20.18,20.18,0,0,0,8.94-2.1L560.2,557.5l0,0a.08.08,0,0,1,0,0L555.69,553a20,20,0,0,0-2.11,8.94v7.37l85.64,85.63Z" transform="translate(-57.37 -42.6)"/><polygon class="cls-1" points="563.41 612.33 496.21 545.13 496.21 563.54 545 612.33 563.41 612.33"/><path class="cls-1" d="M583.94,654.93l-30.36-30.35v10.11a20.13,20.13,0,0,0,5.14,13.44l1.67,1.67a20.13,20.13,0,0,0,13.43,5.13Z" transform="translate(-57.37 -42.6)"/><path class="cls-1" d="M186.55,798.94l1.68-1.67A20.36,20.36,0,0,0,186.55,798.94Z" transform="translate(-57.37 -42.6)"/><path class="cls-1" d="M289.05,899.1l-.66.66Z" transform="translate(-57.37 -42.6)"/><path class="cls-1" d="M274.42,905.38a20.14,20.14,0,0,0,14-5.62l.66-.66a20.13,20.13,0,0,0,5.61-14V875.07l-30.3,30.31Z" transform="translate(-57.37 -42.6)"/><polygon class="cls-1" points="188.55 862.77 237.29 814.04 237.29 795.62 170.14 862.77 188.55 862.77"/><path class="cls-1" d="M288.1,807.93l0,0-95.32,95.32a20.18,20.18,0,0,0,8.91,2.09h7.42l85.58-85.59v-7.41a20.08,20.08,0,0,0-2.09-8.92l-4.43,4.43Z" transform="translate(-57.37 -42.6)"/><path class="cls-1" d="M181.42,885.14a20.18,20.18,0,0,0,2.1,8.94l95.33-95.32,0,0,0,0,4.44-4.44a20.19,20.19,0,0,0-8.95-2.1h-7.37l-85.63,85.63Z" transform="translate(-57.37 -42.6)"/><polygon class="cls-1" points="124.05 816.73 191.25 749.53 172.83 749.53 124.05 798.32 124.05 816.73"/><path class="cls-1" d="M181.42,822.49l30.35-30.35H201.66a20.13,20.13,0,0,0-13.43,5.13l-1.68,1.67a20.16,20.16,0,0,0-5.13,13.44Z" transform="translate(-57.37 -42.6)"/><path class="cls-1" d="M537.61,149.39l-1.68,1.67A22.06,22.06,0,0,0,537.61,149.39Z" transform="translate(-57.37 -42.6)"/><path class="cls-1" d="M435.11,49.22l.66-.66Z" transform="translate(-57.37 -42.6)"/><path class="cls-1" d="M449.74,43a20.16,20.16,0,0,0-14,5.61l-.66.66a20.18,20.18,0,0,0-5.61,14V73.25L459.8,43Z" transform="translate(-57.37 -42.6)"/><polygon class="cls-1" points="420.86 0.34 372.12 49.08 372.12 67.5 439.28 0.34 420.86 0.34"/><path class="cls-1" d="M436.06,140.4l0-.05L531.41,45A20,20,0,0,0,522.5,43h-7.42L429.5,128.53V136a20.17,20.17,0,0,0,2.08,8.91l4.44-4.43Z" transform="translate(-57.37 -42.6)"/><path class="cls-1" d="M542.74,63.19a20.06,20.06,0,0,0-2.11-8.95l-95.32,95.33s0,0,0,0l0,0-4.44,4.44a20.19,20.19,0,0,0,8.95,2.1h7.36l85.64-85.63Z" transform="translate(-57.37 -42.6)"/><polygon class="cls-1" points="485.37 46.38 418.16 113.59 436.58 113.59 485.37 64.8 485.37 46.38"/><path class="cls-1" d="M542.74,125.84l-30.35,30.35H522.5a20.13,20.13,0,0,0,13.43-5.13l1.68-1.67A20.17,20.17,0,0,0,542.74,136Z" transform="translate(-57.37 -42.6)"/><circle class="cls-1" cx="454.35" cy="980.77" r="6.31"/><circle class="cls-1" cx="486.5" cy="1023.38" r="6.31" transform="translate(-279.48 96.55) rotate(-13.28)"/><circle class="cls-1" cx="461.27" cy="1023.38" r="6.31" transform="translate(-280.16 90.75) rotate(-13.28)"/><circle class="cls-1" cx="530.65" cy="998.15" r="12.61" transform="translate(-272.5 106.01) rotate(-13.28)"/><circle class="cls-1" cx="378.67" cy="955.54" r="6.31"/><circle class="cls-1" cx="479.58" cy="930.31" r="6.31"/><circle class="cls-1" cx="454.35" cy="930.31" r="6.31"/><circle class="cls-1" cx="378.67" cy="930.31" r="6.31"/><circle class="cls-1" cx="479.58" cy="905.09" r="6.31"/><circle class="cls-1" cx="511.72" cy="947.69" r="12.61" transform="translate(-577.61 596.81) rotate(-45)"/><circle class="cls-1" cx="486.5" cy="947.69" r="6.31" transform="translate(-262.09 94.52) rotate(-13.28)"/><circle class="cls-1" cx="461.27" cy="947.69" r="6.31" transform="translate(-262.77 88.72) rotate(-13.28)"/><circle class="cls-1" cx="378.67" cy="905.09" r="6.31"/><circle class="cls-1" cx="536.95" cy="922.68" r="6.31" transform="translate(-255 105.44) rotate(-13.28)"/><circle class="cls-1" cx="454.35" cy="879.86" r="6.31"/><circle class="cls-1" cx="486.5" cy="922.46" r="6.31" transform="translate(-256.3 93.85) rotate(-13.28)"/><circle class="cls-1" cx="461.27" cy="922.46" r="6.31" transform="matrix(0.97, -0.23, 0.23, 0.97, -256.97, 88.05)"/><circle class="cls-1" cx="436.04" cy="1023.38" r="6.31" transform="translate(-280.83 84.95) rotate(-13.28)"/><circle class="cls-1" cx="439.19" cy="925.62" r="9.46" transform="translate(-258.29 83.06) rotate(-13.28)"/><circle class="cls-1" cx="536.95" cy="1023.38" r="6.31" transform="translate(-278.13 108.14) rotate(-13.28)"/><circle class="cls-1" cx="473.88" cy="985.53" r="25.23" transform="translate(-271.13 92.63) rotate(-13.28)"/><circle class="cls-1" cx="253.86" cy="704.87" r="6.36"/><circle class="cls-1" cx="311.23" cy="722.02" r="6.36" transform="translate(-214.93 48.22) rotate(-13.28)"/><circle class="cls-1" cx="311.23" cy="696.58" r="6.36" transform="translate(-209.09 47.54) rotate(-13.28)"/><circle class="cls-1" cx="323.96" cy="760.2" r="6.36" transform="translate(-223.36 52.16) rotate(-13.28)"/><circle class="cls-1" cx="266.58" cy="692.14" r="6.36"/><circle class="cls-1" cx="266.58" cy="666.7" r="6.36"/><circle class="cls-1" cx="266.58" cy="641.25" r="6.36"/><circle class="cls-1" cx="336.68" cy="772.92" r="6.36" transform="translate(-225.95 55.43) rotate(-13.28)"/><circle class="cls-1" cx="336.68" cy="747.47" r="6.36" transform="translate(-220.1 54.74) rotate(-13.28)"/><circle class="cls-1" cx="279.31" cy="679.42" r="6.36"/><circle class="cls-1" cx="279.31" cy="653.97" r="6.36"/><circle class="cls-1" cx="279.31" cy="628.52" r="6.36"/><circle class="cls-1" cx="292.03" cy="717.59" r="6.36"/><circle class="cls-1" cx="349.41" cy="734.75" r="6.36" transform="translate(-216.84 57.33) rotate(-13.28)"/><circle class="cls-1" cx="349.41" cy="709.3" r="6.36" transform="translate(-210.99 56.65) rotate(-13.28)"/><circle class="cls-1" cx="349.41" cy="683.85" r="6.36" transform="translate(-205.14 55.97) rotate(-13.28)"/><circle class="cls-1" cx="304.76" cy="730.31" r="6.36"/><circle class="cls-1" cx="304.76" cy="704.87" r="6.36"/><circle class="cls-1" cx="362.13" cy="722.02" r="6.36" transform="translate(-213.57 59.91) rotate(-13.28)"/><circle class="cls-1" cx="362.13" cy="696.58" r="6.36" transform="translate(-207.73 59.23) rotate(-13.28)"/><circle class="cls-1" cx="304.76" cy="628.52" r="6.36"/><circle class="cls-1" cx="317.48" cy="717.59" r="6.36"/><circle class="cls-1" cx="374.85" cy="734.75" r="6.36" transform="translate(-216.16 63.17) rotate(-13.28)"/><circle class="cls-1" cx="374.85" cy="709.3" r="6.36" transform="matrix(0.97, -0.23, 0.23, 0.97, -210.31, 62.49)"/><circle class="cls-1" cx="374.85" cy="683.85" r="6.36" transform="translate(-204.46 61.81) rotate(-13.28)"/><circle class="cls-1" cx="330.2" cy="730.31" r="6.36"/><circle class="cls-1" cx="330.2" cy="704.87" r="6.36"/><circle class="cls-1" cx="387.58" cy="722.02" r="6.36" transform="translate(-212.89 65.76) rotate(-13.28)"/><circle class="cls-1" cx="387.58" cy="696.58" r="6.36" transform="translate(-207.05 65.08) rotate(-13.28)"/><circle class="cls-1" cx="330.2" cy="628.52" r="6.36"/><circle class="cls-1" cx="400.3" cy="760.2" r="6.36" transform="translate(-173.97 31.33) rotate(-9.22)"/><circle class="cls-1" cx="400.3" cy="734.75" r="6.36" transform="translate(-489.08 780.8) rotate(-67.5)"/><circle class="cls-1" cx="400.3" cy="709.3" r="6.36" transform="translate(-465.57 765.09) rotate(-67.5)"/><circle class="cls-1" cx="400.3" cy="683.85" r="6.36" transform="translate(-442.06 749.38) rotate(-67.5)"/><circle class="cls-1" cx="412.81" cy="772.92" r="6.36" transform="translate(-223.91 72.92) rotate(-13.28)"/><circle class="cls-1" cx="355.65" cy="704.87" r="6.36"/><circle class="cls-1" cx="413.02" cy="722.02" r="6.36" transform="translate(-212.21 71.6) rotate(-13.28)"/><circle class="cls-1" cx="413.02" cy="696.58" r="6.36" transform="translate(-206.36 70.92) rotate(-13.28)"/><circle class="cls-1" cx="311.23" cy="671.13" r="6.36" transform="translate(-203.24 46.86) rotate(-13.28)"/><circle class="cls-1" cx="413.02" cy="671.13" r="6.36" transform="translate(-200.52 70.24) rotate(-13.28)"/><circle class="cls-1" cx="311.23" cy="772.92" r="6.36" transform="translate(-226.63 49.58) rotate(-13.28)"/></svg>